<?xml version="1.0" encoding="utf-8" standalone="no"?>
<!DOCTYPE svg PUBLIC "-//W3C//DTD SVG 1.1//EN"
  "http://www.w3.org/Graphics/SVG/1.1/DTD/svg11.dtd">
<svg xmlns:xlink="http://www.w3.org/1999/xlink" width="1728pt" height="1080pt" viewBox="0 0 1728 1080" xmlns="http://www.w3.org/2000/svg" version="1.1">
 <metadata>
  <rdf:RDF xmlns:dc="http://purl.org/dc/elements/1.1/" xmlns:cc="http://creativecommons.org/ns#" xmlns:rdf="http://www.w3.org/1999/02/22-rdf-syntax-ns#">
   <cc:Work>
    <dc:type rdf:resource="http://purl.org/dc/dcmitype/StillImage"/>
    <dc:date>2026-09-23T19:48:34.940613</dc:date>
    <dc:format>image/svg+xml</dc:format>
    <dc:creator>
     <cc:Agent>
      <dc:title>Matplotlib v3.10.8, https://matplotlib.org/</dc:title>
     </cc:Agent>
    </dc:creator>
   </cc:Work>
  </rdf:RDF>
 </metadata>
 <defs>
  <style type="text/css">*{stroke-linejoin: round; stroke-linecap: butt}</style>
 </defs>
 <g id="figure_1">
  <g id="patch_1">
   <path d="M 0 1080 
L 1728 1080 
L 1728 0 
L 0 0 
z
" style="fill: #f8fafc"/>
  </g>
  <g id="axes_1">
   <g id="patch_2">
    <path d="M 46.08 613.8 
L 681.84 613.8 
Q 693.36 613.8 693.36 602.28 
L 693.36 279.72 
Q 693.36 268.2 681.84 268.2 
L 46.08 268.2 
Q 34.56 268.2 34.56 279.72 
L 34.56 602.28 
Q 34.56 613.8 46.08 613.8 
z
" clip-path="url(#p26b166adeb)" style="fill: #ffffff; stroke: #0f766e; stroke-width: 1.55; stroke-linejoin: miter"/>
   </g>
   <g id="patch_3">
    <path d="M 46.8 82.8 
L 1681.2 82.8 
Q 1688.4 82.8 1688.4 75.6 
L 1688.4 45.36 
Q 1688.4 38.16 1681.2 38.16 
L 46.8 38.16 
Q 39.6 38.16 39.6 45.36 
L 39.6 75.6 
Q 39.6 82.8 46.8 82.8 
z
" clip-path="url(#p26b166adeb)" style="fill: #dbeafe; stroke: #2563eb; stroke-width: 1.25; stroke-linejoin: miter"/>
   </g>
   <g id="patch_4">
    <path d="M 46.8 723.6 
L 1681.2 723.6 
Q 1688.4 723.6 1688.4 716.4 
L 1688.4 686.16 
Q 1688.4 678.96 1681.2 678.96 
L 46.8 678.96 
Q 39.6 678.96 39.6 686.16 
L 39.6 716.4 
Q 39.6 723.6 46.8 723.6 
z
" clip-path="url(#p26b166adeb)" style="fill: #ede9fe; stroke: #7c3aed; stroke-width: 1.25; stroke-linejoin: miter"/>
   </g>
   <g id="patch_5">
    <path d="M 56.16 244.8 
L 210.24 244.8 
Q 219.6 244.8 219.6 235.44 
L 219.6 135.36 
Q 219.6 126 210.24 126 
L 56.16 126 
Q 46.8 126 46.8 135.36 
L 46.8 235.44 
Q 46.8 244.8 56.16 244.8 
z
" clip-path="url(#p26b166adeb)" style="fill: #ffffff; stroke: #2563eb; stroke-width: 1.35; stroke-linejoin: miter"/>
   </g>
   <g id="patch_6">
    <path d="M 257.76 244.8 
L 411.84 244.8 
Q 421.2 244.8 421.2 235.44 
L 421.2 135.36 
Q 421.2 126 411.84 126 
L 257.76 126 
Q 248.4 126 248.4 135.36 
L 248.4 235.44 
Q 248.4 244.8 257.76 244.8 
z
" clip-path="url(#p26b166adeb)" style="fill: #ede9fe; stroke: #7c3aed; stroke-width: 1.35; stroke-linejoin: miter"/>
   </g>
   <g id="patch_7">
    <path d="M 459.36 244.8 
L 613.44 244.8 
Q 622.8 244.8 622.8 235.44 
L 622.8 135.36 
Q 622.8 126 613.44 126 
L 459.36 126 
Q 450 126 450 135.36 
L 450 235.44 
Q 450 244.8 459.36 244.8 
z
" clip-path="url(#p26b166adeb)" style="fill: #cffafe; stroke: #0891b2; stroke-width: 1.35; stroke-linejoin: miter"/>
   </g>
   <g id="patch_8">
    <path d="M 660.96 244.8 
L 815.04 244.8 
Q 824.4 244.8 824.4 235.44 
L 824.4 135.36 
Q 824.4 126 815.04 126 
L 660.96 126 
Q 651.6 126 651.6 135.36 
L 651.6 235.44 
Q 651.6 244.8 660.96 244.8 
z
" clip-path="url(#p26b166adeb)" style="fill: #ccfbf1; stroke: #0f766e; stroke-width: 1.35; stroke-linejoin: miter"/>
   </g>
   <g id="patch_9">
    <path d="M 47.52 968.4 
L 226.08 968.4 
Q 234 968.4 234 960.48 
L 234 785.52 
Q 234 777.6 226.08 777.6 
L 47.52 777.6 
Q 39.6 777.6 39.6 785.52 
L 39.6 960.48 
Q 39.6 968.4 47.52 968.4 
z
" clip-path="url(#p26b166adeb)" style="fill: #dbeafe; stroke: #2563eb; stroke-width: 1.25; stroke-linejoin: miter"/>
   </g>
   <g id="patch_10">
    <path d="M 266.4 968.4 
L 444.96 968.4 
Q 452.88 968.4 452.88 960.48 
L 452.88 785.52 
Q 452.88 777.6 444.96 777.6 
L 266.4 777.6 
Q 258.48 777.6 258.48 785.52 
L 258.48 960.48 
Q 258.48 968.4 266.4 968.4 
z
" clip-path="url(#p26b166adeb)" style="fill: #ede9fe; stroke: #7c3aed; stroke-width: 1.25; stroke-linejoin: miter"/>
   </g>
   <g id="patch_11">
    <path d="M 485.28 968.4 
L 663.84 968.4 
Q 671.76 968.4 671.76 960.48 
L 671.76 785.52 
Q 671.76 777.6 663.84 777.6 
L 485.28 777.6 
Q 477.36 777.6 477.36 785.52 
L 477.36 960.48 
Q 477.36 968.4 485.28 968.4 
z
" clip-path="url(#p26b166adeb)" style="fill: #ffedd5; stroke: #ea580c; stroke-width: 1.25; stroke-linejoin: miter"/>
   </g>
   <g id="patch_12">
    <path d="M 704.16 968.4 
L 882.72 968.4 
Q 890.64 968.4 890.64 960.48 
L 890.64 785.52 
Q 890.64 777.6 882.72 777.6 
L 704.16 777.6 
Q 696.24 777.6 696.24 785.52 
L 696.24 960.48 
Q 696.24 968.4 704.16 968.4 
z
" clip-path="url(#p26b166adeb)" style="fill: #cffafe; stroke: #0891b2; stroke-width: 1.25; stroke-linejoin: miter"/>
   </g>
   <g id="patch_13">
    <path d="M 923.04 968.4 
L 1101.6 968.4 
Q 1109.52 968.4 1109.52 960.48 
L 1109.52 785.52 
Q 1109.52 777.6 1101.6 777.6 
L 923.04 777.6 
Q 915.12 777.6 915.12 785.52 
L 915.12 960.48 
Q 915.12 968.4 923.04 968.4 
z
" clip-path="url(#p26b166adeb)" style="fill: #fee2e2; stroke: #dc2626; stroke-width: 1.25; stroke-linejoin: miter"/>
   </g>
   <g id="patch_14">
    <path d="M 1133.28 975.6 
L 1329.12 975.6 
Q 1337.04 975.6 1337.04 967.68 
L 1337.04 778.32 
Q 1337.04 770.4 1329.12 770.4 
L 1133.28 770.4 
Q 1125.36 770.4 1125.36 778.32 
L 1125.36 967.68 
Q 1125.36 975.6 1133.28 975.6 
z
" clip-path="url(#p26b166adeb)" style="fill: #d1fae5; stroke: #059669; stroke-width: 1.25; stroke-linejoin: miter"/>
   </g>
   <g id="patch_15">
    <path d="M 1360.8 968.4 
L 1539.36 968.4 
Q 1547.28 968.4 1547.28 960.48 
L 1547.28 785.52 
Q 1547.28 777.6 1539.36 777.6 
L 1360.8 777.6 
Q 1352.88 777.6 1352.88 785.52 
L 1352.88 960.48 
Q 1352.88 968.4 1360.8 968.4 
z
" clip-path="url(#p26b166adeb)" style="fill: #ccfbf1; stroke: #0f766e; stroke-width: 1.25; stroke-linejoin: miter"/>
   </g>
   <g id="patch_16">
    <path d="M 59.76 446.04 
L 335.52 446.04 
Q 343.44 446.04 343.44 438.12 
L 343.44 333 
Q 343.44 325.08 335.52 325.08 
L 59.76 325.08 
Q 51.84 325.08 51.84 333 
L 51.84 438.12 
Q 51.84 446.04 59.76 446.04 
z
" clip-path="url(#p26b166adeb)" style="fill: #dbeafe; stroke: #2563eb; stroke-width: 1.25; stroke-linejoin: miter"/>
   </g>
   <g id="patch_17">
    <path d="M 375.84 446.04 
L 651.6 446.04 
Q 659.52 446.04 659.52 438.12 
L 659.52 333 
Q 659.52 325.08 651.6 325.08 
L 375.84 325.08 
Q 367.92 325.08 367.92 333 
L 367.92 438.12 
Q 367.92 446.04 375.84 446.04 
z
" clip-path="url(#p26b166adeb)" style="fill: #ede9fe; stroke: #7c3aed; stroke-width: 1.25; stroke-linejoin: miter"/>
   </g>
   <g id="patch_18">
    <path d="M 59.76 587.16 
L 335.52 587.16 
Q 343.44 587.16 343.44 579.24 
L 343.44 474.12 
Q 343.44 466.2 335.52 466.2 
L 59.76 466.2 
Q 51.84 466.2 51.84 474.12 
L 51.84 579.24 
Q 51.84 587.16 59.76 587.16 
z
" clip-path="url(#p26b166adeb)" style="fill: #cffafe; stroke: #0891b2; stroke-width: 1.25; stroke-linejoin: miter"/>
   </g>
   <g id="patch_19">
    <path d="M 375.84 587.16 
L 651.6 587.16 
Q 659.52 587.16 659.52 579.24 
L 659.52 474.12 
Q 659.52 466.2 651.6 466.2 
L 375.84 466.2 
Q 367.92 466.2 367.92 474.12 
L 367.92 579.24 
Q 367.92 587.16 375.84 587.16 
z
" clip-path="url(#p26b166adeb)" style="fill: #fee2e2; stroke: #dc2626; stroke-width: 1.25; stroke-linejoin: miter"/>
   </g>
   <g id="patch_20">
    <path d="M 841.68 550.8 
L 997.92 550.8 
Q 1008 550.8 1008 540.72 
L 1008 341.28 
Q 1008 331.2 997.92 331.2 
L 841.68 331.2 
Q 831.6 331.2 831.6 341.28 
L 831.6 540.72 
Q 831.6 550.8 841.68 550.8 
z
" clip-path="url(#p26b166adeb)" style="fill: #ede9fe; stroke: #7c3aed; stroke-width: 1.65; stroke-linejoin: miter"/>
   </g>
   <g id="patch_21">
    <path d="M 1043.28 513 
L 1206.72 513 
Q 1216.8 513 1216.8 502.92 
L 1216.8 379.08 
Q 1216.8 369 1206.72 369 
L 1043.28 369 
Q 1033.2 369 1033.2 379.08 
L 1033.2 502.92 
Q 1033.2 513 1043.28 513 
z
" clip-path="url(#p26b166adeb)" style="fill: #ffedd5; stroke: #ea580c; stroke-width: 1.65; stroke-linejoin: miter"/>
   </g>
   <g id="patch_22">
    <path d="M 1246.32 432 
L 1392.48 432 
Q 1400.4 432 1400.4 424.08 
L 1400.4 346.32 
Q 1400.4 338.4 1392.48 338.4 
L 1246.32 338.4 
Q 1238.4 338.4 1238.4 346.32 
L 1238.4 424.08 
Q 1238.4 432 1246.32 432 
z
" clip-path="url(#p26b166adeb)" style="fill: #d1fae5; stroke: #059669; stroke-width: 1.45; stroke-linejoin: miter"/>
   </g>
   <g id="patch_23">
    <path d="M 1246.32 568.8 
L 1392.48 568.8 
Q 1400.4 568.8 1400.4 560.88 
L 1400.4 483.12 
Q 1400.4 475.2 1392.48 475.2 
L 1246.32 475.2 
Q 1238.4 475.2 1238.4 483.12 
L 1238.4 560.88 
Q 1238.4 568.8 1246.32 568.8 
z
" clip-path="url(#p26b166adeb)" style="fill: #fee2e2; stroke: #dc2626; stroke-width: 1.45; stroke-linejoin: miter"/>
   </g>
   <g id="patch_24">
    <path d="M 55.44 1036.08 
L 69.84 1036.08 
Q 73.44 1036.08 73.44 1032.48 
L 73.44 1023.84 
Q 73.44 1020.24 69.84 1020.24 
L 55.44 1020.24 
Q 51.84 1020.24 51.84 1023.84 
L 51.84 1032.48 
Q 51.84 1036.08 55.44 1036.08 
z
" clip-path="url(#p26b166adeb)" style="fill: #d1fae5; stroke: #059669; stroke-linejoin: miter"/>
   </g>
   <g id="patch_25">
    <path d="M 318.24 1036.08 
L 332.64 1036.08 
Q 336.24 1036.08 336.24 1032.48 
L 336.24 1023.84 
Q 336.24 1020.24 332.64 1020.24 
L 318.24 1020.24 
Q 314.64 1020.24 314.64 1023.84 
L 314.64 1032.48 
Q 314.64 1036.08 318.24 1036.08 
z
" clip-path="url(#p26b166adeb)" style="fill: #fee2e2; stroke: #dc2626; stroke-linejoin: miter"/>
   </g>
   <g id="patch_26">
    <path d="M 581.04 1036.08 
L 595.44 1036.08 
Q 599.04 1036.08 599.04 1032.48 
L 599.04 1023.84 
Q 599.04 1020.24 595.44 1020.24 
L 581.04 1020.24 
Q 577.44 1020.24 577.44 1023.84 
L 577.44 1032.48 
Q 577.44 1036.08 581.04 1036.08 
z
" clip-path="url(#p26b166adeb)" style="fill: #ccfbf1; stroke: #0f766e; stroke-linejoin: miter"/>
   </g>
   <g id="patch_27">
    <path d="M 843.84 1036.08 
L 858.24 1036.08 
Q 861.84 1036.08 861.84 1032.48 
L 861.84 1023.84 
Q 861.84 1020.24 858.24 1020.24 
L 843.84 1020.24 
Q 840.24 1020.24 840.24 1023.84 
L 840.24 1032.48 
Q 840.24 1036.08 843.84 1036.08 
z
" clip-path="url(#p26b166adeb)" style="fill: #ede9fe; stroke: #7c3aed; stroke-linejoin: miter"/>
   </g>
   <g id="patch_28">
    <path d="M 1106.64 1036.08 
L 1121.04 1036.08 
Q 1124.64 1036.08 1124.64 1032.48 
L 1124.64 1023.84 
Q 1124.64 1020.24 1121.04 1020.24 
L 1106.64 1020.24 
Q 1103.04 1020.24 1103.04 1023.84 
L 1103.04 1032.48 
Q 1103.04 1036.08 1106.64 1036.08 
z
" clip-path="url(#p26b166adeb)" style="fill: #ffedd5; stroke: #ea580c; stroke-linejoin: miter"/>
   </g>
   <g id="line2d_1">
    <path d="M 1547.28 873 
L 1695.6 873 
" clip-path="url(#p26b166adeb)" style="fill: none; stroke: #ea580c; stroke-width: 1.65; stroke-linecap: square"/>
   </g>
   <g id="line2d_2">
    <path d="M 1695.6 873 
L 1695.6 666 
" clip-path="url(#p26b166adeb)" style="fill: none; stroke: #ea580c; stroke-width: 1.65; stroke-linecap: square"/>
   </g>
   <g id="line2d_3">
    <path d="M 1695.6 666 
L 1125 666 
" clip-path="url(#p26b166adeb)" style="fill: none; stroke: #ea580c; stroke-width: 1.65; stroke-linecap: square"/>
   </g>
   <g id="patch_29">
    <path d="M 1125 666 
Q 1125 589.5 1125 514.844756 
" clip-path="url(#p26b166adeb)" style="fill: none; stroke: #ea580c; stroke-width: 1.65; stroke-linecap: round"/>
    <path d="M 1122 520.844756 
L 1125 514.844756 
L 1128 520.844756 
z
" clip-path="url(#p26b166adeb)" style="fill: #ea580c; stroke: #ea580c; stroke-width: 1.65; stroke-linecap: round"/>
   </g>
   <g id="patch_30">
    <path d="M 234 873 
Q 246.24 873 257.082458 873 
" clip-path="url(#p26b166adeb)" style="fill: none; stroke: #64748b; stroke-width: 1.25; stroke-linecap: round"/>
    <path d="M 252.682458 870.8 
L 257.082458 873 
L 252.682458 875.2 
z
" clip-path="url(#p26b166adeb)" style="fill: #64748b; stroke: #64748b; stroke-width: 1.25; stroke-linecap: round"/>
   </g>
   <g id="patch_31">
    <path d="M 452.88 873 
Q 465.12 873 475.962458 873 
" clip-path="url(#p26b166adeb)" style="fill: none; stroke: #64748b; stroke-width: 1.25; stroke-linecap: round"/>
    <path d="M 471.562458 870.8 
L 475.962458 873 
L 471.562458 875.2 
z
" clip-path="url(#p26b166adeb)" style="fill: #64748b; stroke: #64748b; stroke-width: 1.25; stroke-linecap: round"/>
   </g>
   <g id="patch_32">
    <path d="M 671.76 873 
Q 684 873 694.842458 873 
" clip-path="url(#p26b166adeb)" style="fill: none; stroke: #64748b; stroke-width: 1.25; stroke-linecap: round"/>
    <path d="M 690.442458 870.8 
L 694.842458 873 
L 690.442458 875.2 
z
" clip-path="url(#p26b166adeb)" style="fill: #64748b; stroke: #64748b; stroke-width: 1.25; stroke-linecap: round"/>
   </g>
   <g id="patch_33">
    <path d="M 890.64 873 
Q 902.88 873 913.722458 873 
" clip-path="url(#p26b166adeb)" style="fill: none; stroke: #64748b; stroke-width: 1.25; stroke-linecap: round"/>
    <path d="M 909.322458 870.8 
L 913.722458 873 
L 909.322458 875.2 
z
" clip-path="url(#p26b166adeb)" style="fill: #64748b; stroke: #64748b; stroke-width: 1.25; stroke-linecap: round"/>
   </g>
   <g id="line2d_4">
    <path d="M 1109.52 873 
L 1121.04 873 
" clip-path="url(#p26b166adeb)" style="fill: none; stroke: #64748b; stroke-width: 1.25; stroke-linecap: square"/>
   </g>
   <g id="line2d_5">
    <path d="M 1121.04 873 
L 1121.04 873 
" clip-path="url(#p26b166adeb)" style="fill: none; stroke: #64748b; stroke-width: 1.25; stroke-linecap: square"/>
   </g>
   <g id="patch_34">
    <path d="M 1121.04 873 
Q 1123.2 873 1123.962458 873 
" clip-path="url(#p26b166adeb)" style="fill: none; stroke: #64748b; stroke-width: 1.25; stroke-linecap: round"/>
    <path d="M 1119.562458 870.8 
L 1123.962458 873 
L 1119.562458 875.2 
z
" clip-path="url(#p26b166adeb)" style="fill: #64748b; stroke: #64748b; stroke-width: 1.25; stroke-linecap: round"/>
   </g>
   <g id="line2d_6">
    <path d="M 1337.04 873 
L 1341.36 873 
" clip-path="url(#p26b166adeb)" style="fill: none; stroke: #64748b; stroke-width: 1.25; stroke-linecap: square"/>
   </g>
   <g id="line2d_7">
    <path d="M 1341.36 873 
L 1341.36 873 
" clip-path="url(#p26b166adeb)" style="fill: none; stroke: #64748b; stroke-width: 1.25; stroke-linecap: square"/>
   </g>
   <g id="patch_35">
    <path d="M 1341.36 873 
Q 1347.12 873 1351.482458 873 
" clip-path="url(#p26b166adeb)" style="fill: none; stroke: #64748b; stroke-width: 1.25; stroke-linecap: round"/>
    <path d="M 1347.082458 870.8 
L 1351.482458 873 
L 1347.082458 875.2 
z
" clip-path="url(#p26b166adeb)" style="fill: #64748b; stroke: #64748b; stroke-width: 1.25; stroke-linecap: round"/>
   </g>
   <g id="patch_36">
    <path d="M 77.76 956.88 
L 195.84 956.88 
Q 200.88 956.88 200.88 951.84 
L 200.88 939.6 
Q 200.88 934.56 195.84 934.56 
L 77.76 934.56 
Q 72.72 934.56 72.72 939.6 
L 72.72 951.84 
Q 72.72 956.88 77.76 956.88 
z
" clip-path="url(#p26b166adeb)" style="fill: #ffffff; stroke: #2563eb; stroke-width: 0.95; stroke-linejoin: miter"/>
   </g>
   <g id="patch_37">
    <path d="M 296.64 956.88 
L 414.72 956.88 
Q 419.76 956.88 419.76 951.84 
L 419.76 939.6 
Q 419.76 934.56 414.72 934.56 
L 296.64 934.56 
Q 291.6 934.56 291.6 939.6 
L 291.6 951.84 
Q 291.6 956.88 296.64 956.88 
z
" clip-path="url(#p26b166adeb)" style="fill: #ffffff; stroke: #7c3aed; stroke-width: 0.95; stroke-linejoin: miter"/>
   </g>
   <g id="patch_38">
    <path d="M 515.52 956.88 
L 633.6 956.88 
Q 638.64 956.88 638.64 951.84 
L 638.64 939.6 
Q 638.64 934.56 633.6 934.56 
L 515.52 934.56 
Q 510.48 934.56 510.48 939.6 
L 510.48 951.84 
Q 510.48 956.88 515.52 956.88 
z
" clip-path="url(#p26b166adeb)" style="fill: #ffffff; stroke: #ea580c; stroke-width: 0.95; stroke-linejoin: miter"/>
   </g>
   <g id="patch_39">
    <path d="M 734.4 956.88 
L 852.48 956.88 
Q 857.52 956.88 857.52 951.84 
L 857.52 939.6 
Q 857.52 934.56 852.48 934.56 
L 734.4 934.56 
Q 729.36 934.56 729.36 939.6 
L 729.36 951.84 
Q 729.36 956.88 734.4 956.88 
z
" clip-path="url(#p26b166adeb)" style="fill: #ffffff; stroke: #0891b2; stroke-width: 0.95; stroke-linejoin: miter"/>
   </g>
   <g id="patch_40">
    <path d="M 953.28 956.88 
L 1071.36 956.88 
Q 1076.4 956.88 1076.4 951.84 
L 1076.4 939.6 
Q 1076.4 934.56 1071.36 934.56 
L 953.28 934.56 
Q 948.24 934.56 948.24 939.6 
L 948.24 951.84 
Q 948.24 956.88 953.28 956.88 
z
" clip-path="url(#p26b166adeb)" style="fill: #ffffff; stroke: #dc2626; stroke-width: 0.95; stroke-linejoin: miter"/>
   </g>
   <g id="patch_41">
    <path d="M 1172.16 964.08 
L 1290.24 964.08 
Q 1295.28 964.08 1295.28 959.04 
L 1295.28 946.8 
Q 1295.28 941.76 1290.24 941.76 
L 1172.16 941.76 
Q 1167.12 941.76 1167.12 946.8 
L 1167.12 959.04 
Q 1167.12 964.08 1172.16 964.08 
z
" clip-path="url(#p26b166adeb)" style="fill: #ffffff; stroke: #059669; stroke-width: 0.95; stroke-linejoin: miter"/>
   </g>
   <g id="patch_42">
    <path d="M 1391.04 956.88 
L 1509.12 956.88 
Q 1514.16 956.88 1514.16 951.84 
L 1514.16 939.6 
Q 1514.16 934.56 1509.12 934.56 
L 1391.04 934.56 
Q 1386 934.56 1386 939.6 
L 1386 951.84 
Q 1386 956.88 1391.04 956.88 
z
" clip-path="url(#p26b166adeb)" style="fill: #ffffff; stroke: #0f766e; stroke-width: 0.95; stroke-linejoin: miter"/>
   </g>
   <g id="patch_43">
    <path d="M 1448.64 656.64 
L 1654.56 656.64 
Q 1659.6 656.64 1659.6 651.6 
L 1659.6 628.56 
Q 1659.6 623.52 1654.56 623.52 
L 1448.64 623.52 
Q 1443.6 623.52 1443.6 628.56 
L 1443.6 651.6 
Q 1443.6 656.64 1448.64 656.64 
z
" clip-path="url(#p26b166adeb)" style="fill: #ffedd5; stroke: #ea580c; stroke-linejoin: miter"/>
   </g>
   <g id="patch_44">
    <path d="M 219.6 185.4 
Q 234 185.4 246.667047 185.4 
" clip-path="url(#p26b166adeb)" style="fill: none; stroke: #172033; stroke-width: 1.55; stroke-linecap: round"/>
    <path d="M 241.467047 182.8 
L 246.667047 185.4 
L 241.467047 188 
z
" clip-path="url(#p26b166adeb)" style="fill: #172033; stroke: #172033; stroke-width: 1.55; stroke-linecap: round"/>
   </g>
   <g id="patch_45">
    <path d="M 421.2 185.4 
Q 435.6 185.4 448.267047 185.4 
" clip-path="url(#p26b166adeb)" style="fill: none; stroke: #172033; stroke-width: 1.55; stroke-linecap: round"/>
    <path d="M 443.067047 182.8 
L 448.267047 185.4 
L 443.067047 188 
z
" clip-path="url(#p26b166adeb)" style="fill: #172033; stroke: #172033; stroke-width: 1.55; stroke-linecap: round"/>
   </g>
   <g id="patch_46">
    <path d="M 622.8 185.4 
Q 637.2 185.4 649.867047 185.4 
" clip-path="url(#p26b166adeb)" style="fill: none; stroke: #172033; stroke-width: 1.55; stroke-linecap: round"/>
    <path d="M 644.667047 182.8 
L 649.867047 185.4 
L 644.667047 188 
z
" clip-path="url(#p26b166adeb)" style="fill: #172033; stroke: #172033; stroke-width: 1.55; stroke-linecap: round"/>
   </g>
   <g id="patch_47">
    <path d="M 693.36 441 
Q 762.48 441 829.587539 441 
" clip-path="url(#p26b166adeb)" style="fill: none; stroke: #0f766e; stroke-width: 1.8; stroke-linecap: round"/>
    <path d="M 823.987539 438.2 
L 829.587539 441 
L 823.987539 443.8 
z
" clip-path="url(#p26b166adeb)" style="fill: #0f766e; stroke: #0f766e; stroke-width: 1.8; stroke-linecap: round"/>
   </g>
   <g id="line2d_8">
    <path d="M 738 244.8 
L 738 302.4 
" clip-path="url(#p26b166adeb)" style="fill: none; stroke: #0f766e; stroke-width: 1.65; stroke-linecap: square"/>
   </g>
   <g id="line2d_9">
    <path d="M 738 302.4 
L 919.8 302.4 
" clip-path="url(#p26b166adeb)" style="fill: none; stroke: #0f766e; stroke-width: 1.65; stroke-linecap: square"/>
   </g>
   <g id="patch_48">
    <path d="M 919.8 302.4 
Q 919.8 316.8 919.8 329.355244 
" clip-path="url(#p26b166adeb)" style="fill: none; stroke: #0f766e; stroke-width: 1.65; stroke-linecap: round"/>
    <path d="M 922.4 324.155244 
L 919.8 329.355244 
L 917.2 324.155244 
z
" clip-path="url(#p26b166adeb)" style="fill: #0f766e; stroke: #0f766e; stroke-width: 1.65; stroke-linecap: round"/>
   </g>
   <g id="patch_49">
    <path d="M 1008 441 
Q 1020.6 441 1031.299342 441 
" clip-path="url(#p26b166adeb)" style="fill: none; stroke: #172033; stroke-width: 1.7; stroke-linecap: round"/>
    <path d="M 1025.699342 438.2 
L 1031.299342 441 
L 1025.699342 443.8 
z
" clip-path="url(#p26b166adeb)" style="fill: #172033; stroke: #172033; stroke-width: 1.7; stroke-linecap: round"/>
   </g>
   <g id="patch_50">
    <path d="M 1216.8 415.08 
Q 1221.624 395.82 1236.79408 386.216623 
" clip-path="url(#p26b166adeb)" style="fill: none; stroke: #059669; stroke-width: 1.7; stroke-linecap: round"/>
    <path d="M 1231.009766 386.801183 
L 1236.79408 386.216623 
L 1233.79114 391.19481 
z
" clip-path="url(#p26b166adeb)" style="fill: #059669; stroke: #059669; stroke-width: 1.7; stroke-linecap: round"/>
   </g>
   <g id="patch_51">
    <path d="M 1216.8 466.92 
Q 1216.584 498.78 1237.098563 520.614807 
" clip-path="url(#p26b166adeb)" style="fill: none; stroke: #dc2626; stroke-width: 1.7; stroke-linecap: round"/>
    <path d="M 1235.432838 515.044765 
L 1237.098563 520.614807 
L 1231.643095 518.605361 
z
" clip-path="url(#p26b166adeb)" style="fill: #dc2626; stroke: #dc2626; stroke-width: 1.7; stroke-linecap: round"/>
   </g>
   <g id="patch_52">
    <path d="M 61.92 816.48 
C 66.311763 816.48 70.524243 814.735134 73.629688 811.629688 
C 76.735134 808.524243 78.48 804.311763 78.48 799.92 
C 78.48 795.528237 76.735134 791.315757 73.629688 788.210312 
C 70.524243 785.104866 66.311763 783.36 61.92 783.36 
C 57.528237 783.36 53.315757 785.104866 50.210312 788.210312 
C 47.104866 791.315757 45.36 795.528237 45.36 799.92 
C 45.36 804.311763 47.104866 808.524243 50.210312 811.629688 
C 53.315757 814.735134 57.528237 816.48 61.92 816.48 
z
" clip-path="url(#p26b166adeb)" style="fill: #2563eb; stroke: #2563eb; stroke-linejoin: miter"/>
   </g>
   <g id="patch_53">
    <path d="M 280.8 816.48 
C 285.191763 816.48 289.404243 814.735134 292.509688 811.629688 
C 295.615134 808.524243 297.36 804.311763 297.36 799.92 
C 297.36 795.528237 295.615134 791.315757 292.509688 788.210312 
C 289.404243 785.104866 285.191763 783.36 280.8 783.36 
C 276.408237 783.36 272.195757 785.104866 269.090312 788.210312 
C 265.984866 791.315757 264.24 795.528237 264.24 799.92 
C 264.24 804.311763 265.984866 808.524243 269.090312 811.629688 
C 272.195757 814.735134 276.408237 816.48 280.8 816.48 
z
" clip-path="url(#p26b166adeb)" style="fill: #7c3aed; stroke: #7c3aed; stroke-linejoin: miter"/>
   </g>
   <g id="patch_54">
    <path d="M 499.68 816.48 
C 504.071763 816.48 508.284243 814.735134 511.389688 811.629688 
C 514.495134 808.524243 516.24 804.311763 516.24 799.92 
C 516.24 795.528237 514.495134 791.315757 511.389688 788.210312 
C 508.284243 785.104866 504.071763 783.36 499.68 783.36 
C 495.288237 783.36 491.075757 785.104866 487.970312 788.210312 
C 484.864866 791.315757 483.12 795.528237 483.12 799.92 
C 483.12 804.311763 484.864866 808.524243 487.970312 811.629688 
C 491.075757 814.735134 495.288237 816.48 499.68 816.48 
z
" clip-path="url(#p26b166adeb)" style="fill: #ea580c; stroke: #ea580c; stroke-linejoin: miter"/>
   </g>
   <g id="patch_55">
    <path d="M 718.56 816.48 
C 722.951763 816.48 727.164243 814.735134 730.269688 811.629688 
C 733.375134 808.524243 735.12 804.311763 735.12 799.92 
C 735.12 795.528237 733.375134 791.315757 730.269688 788.210312 
C 727.164243 785.104866 722.951763 783.36 718.56 783.36 
C 714.168237 783.36 709.955757 785.104866 706.850312 788.210312 
C 703.744866 791.315757 702 795.528237 702 799.92 
C 702 804.311763 703.744866 808.524243 706.850312 811.629688 
C 709.955757 814.735134 714.168237 816.48 718.56 816.48 
z
" clip-path="url(#p26b166adeb)" style="fill: #0891b2; stroke: #0891b2; stroke-linejoin: miter"/>
   </g>
   <g id="patch_56">
    <path d="M 937.44 816.48 
C 941.831763 816.48 946.044243 814.735134 949.149688 811.629688 
C 952.255134 808.524243 954 804.311763 954 799.92 
C 954 795.528237 952.255134 791.315757 949.149688 788.210312 
C 946.044243 785.104866 941.831763 783.36 937.44 783.36 
C 933.048237 783.36 928.835757 785.104866 925.730312 788.210312 
C 922.624866 791.315757 920.88 795.528237 920.88 799.92 
C 920.88 804.311763 922.624866 808.524243 925.730312 811.629688 
C 928.835757 814.735134 933.048237 816.48 937.44 816.48 
z
" clip-path="url(#p26b166adeb)" style="fill: #dc2626; stroke: #dc2626; stroke-linejoin: miter"/>
   </g>
   <g id="patch_57">
    <path d="M 1147.68 809.28 
C 1152.071763 809.28 1156.284243 807.535134 1159.389688 804.429688 
C 1162.495134 801.324243 1164.24 797.111763 1164.24 792.72 
C 1164.24 788.328237 1162.495134 784.115757 1159.389688 781.010312 
C 1156.284243 777.904866 1152.071763 776.16 1147.68 776.16 
C 1143.288237 776.16 1139.075757 777.904866 1135.970312 781.010312 
C 1132.864866 784.115757 1131.12 788.328237 1131.12 792.72 
C 1131.12 797.111763 1132.864866 801.324243 1135.970312 804.429688 
C 1139.075757 807.535134 1143.288237 809.28 1147.68 809.28 
z
" clip-path="url(#p26b166adeb)" style="fill: #059669; stroke: #059669; stroke-linejoin: miter"/>
   </g>
   <g id="patch_58">
    <path d="M 1375.2 816.48 
C 1379.591763 816.48 1383.804243 814.735134 1386.909688 811.629688 
C 1390.015134 808.524243 1391.76 804.311763 1391.76 799.92 
C 1391.76 795.528237 1390.015134 791.315757 1386.909688 788.210312 
C 1383.804243 785.104866 1379.591763 783.36 1375.2 783.36 
C 1370.808237 783.36 1366.595757 785.104866 1363.490312 788.210312 
C 1360.384866 791.315757 1358.64 795.528237 1358.64 799.92 
C 1358.64 804.311763 1360.384866 808.524243 1363.490312 811.629688 
C 1366.595757 814.735134 1370.808237 816.48 1375.2 816.48 
z
" clip-path="url(#p26b166adeb)" style="fill: #0f766e; stroke: #0f766e; stroke-linejoin: miter"/>
   </g>
   <g id="patch_59">
    <path d="M 717.14736 172.991002 
L 748.48464 172.991002 
L 748.48464 161.345664 
L 717.14736 161.345664 
z
" clip-path="url(#p26b166adeb)" style="fill: #ffffff; stroke: #0f766e; stroke-width: 1.5; stroke-linejoin: miter"/>
   </g>
   <g id="patch_60">
    <path d="M 63.1296 501.638976 
L 95.2704 501.638976 
L 95.2704 489.69504 
L 63.1296 489.69504 
z
" clip-path="url(#p26b166adeb)" style="fill: #ffffff; stroke: #0891b2; stroke-width: 1.5; stroke-linejoin: miter"/>
   </g>
   <g id="patch_61">
    <path d="M 120.7296 841.118976 
L 152.8704 841.118976 
L 152.8704 829.17504 
L 120.7296 829.17504 
z
" clip-path="url(#p26b166adeb)" style="fill: #ffffff; stroke: #2563eb; stroke-width: 1.5; stroke-linejoin: miter"/>
   </g>
   <g id="patch_62">
    <path d="M 117.792 183.024 
L 148.608 183.024 
Q 151.488 183.024 151.488 180.144 
L 151.488 159.696 
Q 151.488 156.816 148.608 156.816 
L 117.792 156.816 
Q 114.912 156.816 114.912 159.696 
L 114.912 180.144 
Q 114.912 183.024 117.792 183.024 
z
" clip-path="url(#p26b166adeb)" style="fill: #ffffff; stroke: #2563eb; stroke-width: 1.6; stroke-linejoin: miter"/>
   </g>
   <g id="patch_63">
    <path d="M 334.8 186.12 
C 339.955548 186.12 344.900633 184.413066 348.546156 181.37513 
C 352.191679 178.337194 354.24 174.21629 354.24 169.92 
C 354.24 165.62371 352.191679 161.502806 348.546156 158.46487 
C 344.900633 155.426934 339.955548 153.72 334.8 153.72 
C 329.644452 153.72 324.699367 155.426934 321.053844 158.46487 
C 317.408321 161.502806 315.36 165.62371 315.36 169.92 
C 315.36 174.21629 317.408321 178.337194 321.053844 181.37513 
C 324.699367 184.413066 329.644452 186.12 334.8 186.12 
z
" clip-path="url(#p26b166adeb)" style="fill: #ffffff; stroke: #7c3aed; stroke-width: 1.6; stroke-linejoin: miter"/>
   </g>
   <g id="patch_64">
    <path d="M 518.256 188.064 
L 554.544 169.92 
L 518.256 151.776 
z
" clip-path="url(#p26b166adeb)" style="fill: #cffafe; stroke: #0891b2; stroke-width: 1.5; stroke-linejoin: miter"/>
   </g>
   <g id="patch_65">
    <path d="M 732.816 165.894624 
C 736.971372 165.894624 740.95711 165.415317 743.895402 164.562264 
C 746.833693 163.709212 748.48464 162.552062 748.48464 161.345664 
C 748.48464 160.139266 746.833693 158.982116 743.895402 158.129064 
C 740.95711 157.276011 736.971372 156.796704 732.816 156.796704 
C 728.660628 156.796704 724.67489 157.276011 721.736598 158.129064 
C 718.798307 158.982116 717.14736 160.139266 717.14736 161.345664 
C 717.14736 162.552062 718.798307 163.709212 721.736598 164.562264 
C 724.67489 165.415317 728.660628 165.894624 732.816 165.894624 
z
" clip-path="url(#p26b166adeb)" style="fill: #ffffff; stroke: #0f766e; stroke-width: 1.5; stroke-linejoin: miter"/>
   </g>
   <g id="patch_66">
    <path d="M 732.816 177.539962 
C 736.971372 177.539962 740.95711 177.060654 743.895402 176.207602 
C 746.833693 175.35455 748.48464 174.1974 748.48464 172.991002 
C 748.48464 171.784603 746.833693 170.627454 743.895402 169.774401 
C 740.95711 168.921349 736.971372 168.442042 732.816 168.442042 
C 728.660628 168.442042 724.67489 168.921349 721.736598 169.774401 
C 718.798307 170.627454 717.14736 171.784603 717.14736 172.991002 
C 717.14736 174.1974 718.798307 175.35455 721.736598 176.207602 
C 724.67489 177.060654 728.660628 177.539962 732.816 177.539962 
z
" clip-path="url(#p26b166adeb)" style="fill: #ffffff; stroke: #0f766e; stroke-width: 1.5; stroke-linejoin: miter"/>
   </g>
   <g id="patch_67">
    <path d="M 749.45664 183.50208 
C 752.178769 183.50208 754.789774 182.420566 756.71461 180.49573 
C 758.639446 178.570894 759.72096 175.959889 759.72096 173.23776 
C 759.72096 170.515631 758.639446 167.904626 756.71461 165.97979 
C 754.789774 164.054954 752.178769 162.97344 749.45664 162.97344 
C 746.734511 162.97344 744.123506 164.054954 742.19867 165.97979 
C 740.273834 167.904626 739.19232 170.515631 739.19232 173.23776 
C 739.19232 175.959889 740.273834 178.570894 742.19867 180.49573 
C 744.123506 182.420566 746.734511 183.50208 749.45664 183.50208 
z
" clip-path="url(#p26b166adeb)" style="fill: #ffffff; stroke: #0f766e; stroke-width: 1.6; stroke-linejoin: miter"/>
   </g>
   <g id="patch_68">
    <path d="M 76.0896 365.3712 
C 79.114188 365.3712 82.015305 364.169518 84.154011 362.030811 
C 86.292718 359.892105 87.4944 356.990988 87.4944 353.9664 
C 87.4944 350.941812 86.292718 348.040695 84.154011 345.901989 
C 82.015305 343.763282 79.114188 342.5616 76.0896 342.5616 
C 73.065012 342.5616 70.163895 343.763282 68.025189 345.901989 
C 65.886482 348.040695 64.6848 350.941812 64.6848 353.9664 
C 64.6848 356.990988 65.886482 359.892105 68.025189 362.030811 
C 70.163895 364.169518 73.065012 365.3712 76.0896 365.3712 
z
" clip-path="url(#p26b166adeb)" style="fill: #ffffff; stroke: #2563eb; stroke-width: 1.6; stroke-linejoin: miter"/>
   </g>
   <g id="patch_69">
    <path d="M 383.8752 370.5552 
L 390.096 370.5552 
L 390.096 359.1504 
L 383.8752 359.1504 
z
" clip-path="url(#p26b166adeb)" style="fill: #dbeafe; stroke: #7c3aed; stroke-width: 1.2; stroke-linejoin: miter"/>
   </g>
   <g id="patch_70">
    <path d="M 393.2064 370.5552 
L 399.4272 370.5552 
L 399.4272 350.856 
L 393.2064 350.856 
z
" clip-path="url(#p26b166adeb)" style="fill: #dbeafe; stroke: #7c3aed; stroke-width: 1.2; stroke-linejoin: miter"/>
   </g>
   <g id="patch_71">
    <path d="M 402.5376 370.5552 
L 408.7584 370.5552 
L 408.7584 343.5984 
L 402.5376 343.5984 
z
" clip-path="url(#p26b166adeb)" style="fill: #dbeafe; stroke: #7c3aed; stroke-width: 1.2; stroke-linejoin: miter"/>
   </g>
   <g id="patch_72">
    <path d="M 79.2 494.36064 
C 83.46192 494.36064 87.549856 493.869043 90.563489 492.994117 
C 93.577121 492.119192 95.2704 490.932372 95.2704 489.69504 
C 95.2704 488.457708 93.577121 487.270888 90.563489 486.395963 
C 87.549856 485.521037 83.46192 485.02944 79.2 485.02944 
C 74.93808 485.02944 70.850144 485.521037 67.836511 486.395963 
C 64.822879 487.270888 63.1296 488.457708 63.1296 489.69504 
C 63.1296 490.932372 64.822879 492.119192 67.836511 492.994117 
C 70.850144 493.869043 74.93808 494.36064 79.2 494.36064 
z
" clip-path="url(#p26b166adeb)" style="fill: #ffffff; stroke: #0891b2; stroke-width: 1.5; stroke-linejoin: miter"/>
   </g>
   <g id="patch_73">
    <path d="M 79.2 506.304576 
C 83.46192 506.304576 87.549856 505.812979 90.563489 504.938053 
C 93.577121 504.063128 95.2704 502.876308 95.2704 501.638976 
C 95.2704 500.401644 93.577121 499.214824 90.563489 498.339899 
C 87.549856 497.464973 83.46192 496.973376 79.2 496.973376 
C 74.93808 496.973376 70.850144 497.464973 67.836511 498.339899 
C 64.822879 499.214824 63.1296 500.401644 63.1296 501.638976 
C 63.1296 502.876308 64.822879 504.063128 67.836511 504.938053 
C 70.850144 505.812979 74.93808 506.304576 79.2 506.304576 
z
" clip-path="url(#p26b166adeb)" style="fill: #ffffff; stroke: #0891b2; stroke-width: 1.5; stroke-linejoin: miter"/>
   </g>
   <g id="patch_74">
    <path d="M 395.28 513.7488 
C 399.679401 513.7488 403.899207 512.000899 407.010053 508.890053 
C 410.120899 505.779207 411.8688 501.559401 411.8688 497.16 
C 411.8688 492.760599 410.120899 488.540793 407.010053 485.429947 
C 403.899207 482.319101 399.679401 480.5712 395.28 480.5712 
C 390.880599 480.5712 386.660793 482.319101 383.549947 485.429947 
C 380.439101 488.540793 378.6912 492.760599 378.6912 497.16 
C 378.6912 501.559401 380.439101 505.779207 383.549947 508.890053 
C 386.660793 512.000899 390.880599 513.7488 395.28 513.7488 
z
" clip-path="url(#p26b166adeb)" style="fill: #ffffff; stroke: #dc2626; stroke-width: 1.35; stroke-linejoin: miter"/>
   </g>
   <g id="patch_75">
    <path d="M 395.28 508.0464 
C 398.167107 508.0464 400.936354 506.89934 402.977847 504.857847 
C 405.01934 502.816354 406.1664 500.047107 406.1664 497.16 
C 406.1664 494.272893 405.01934 491.503646 402.977847 489.462153 
C 400.936354 487.42066 398.167107 486.2736 395.28 486.2736 
C 392.392893 486.2736 389.623646 487.42066 387.582153 489.462153 
C 385.54066 491.503646 384.3936 494.272893 384.3936 497.16 
C 384.3936 500.047107 385.54066 502.816354 387.582153 504.857847 
C 389.623646 506.89934 392.392893 508.0464 395.28 508.0464 
z
" clip-path="url(#p26b166adeb)" style="fill: #ffffff; stroke: #dc2626; stroke-width: 1.35; stroke-linejoin: miter"/>
   </g>
   <g id="patch_76">
    <path d="M 395.28 502.344 
C 396.654813 502.344 397.973502 501.797781 398.945642 500.825642 
C 399.917781 499.853502 400.464 498.534813 400.464 497.16 
C 400.464 495.785187 399.917781 494.466498 398.945642 493.494358 
C 397.973502 492.522219 396.654813 491.976 395.28 491.976 
C 393.905187 491.976 392.586498 492.522219 391.614358 493.494358 
C 390.642219 494.466498 390.096 495.785187 390.096 497.16 
C 390.096 498.534813 390.642219 499.853502 391.614358 500.825642 
C 392.586498 501.797781 393.905187 502.344 395.28 502.344 
z
" clip-path="url(#p26b166adeb)" style="fill: #ffffff; stroke: #dc2626; stroke-width: 1.35; stroke-linejoin: miter"/>
   </g>
   <g id="patch_77">
    <path d="M 899.2656 362.88 
L 940.3344 362.88 
L 925.96032 381.096 
L 923.90688 396 
L 915.69312 396 
L 913.63968 381.096 
z
" clip-path="url(#p26b166adeb)" style="fill: #ffffff; stroke: #7c3aed; stroke-width: 1.5; stroke-linejoin: miter"/>
   </g>
   <g id="patch_78">
    <path d="M 1125 421.5888 
C 1129.399401 421.5888 1133.619207 419.840899 1136.730053 416.730053 
C 1139.840899 413.619207 1141.5888 409.399401 1141.5888 405 
C 1141.5888 400.600599 1139.840899 396.380793 1136.730053 393.269947 
C 1133.619207 390.159101 1129.399401 388.4112 1125 388.4112 
C 1120.600599 388.4112 1116.380793 390.159101 1113.269947 393.269947 
C 1110.159101 396.380793 1108.4112 400.600599 1108.4112 405 
C 1108.4112 409.399401 1110.159101 413.619207 1113.269947 416.730053 
C 1116.380793 419.840899 1120.600599 421.5888 1125 421.5888 
z
" clip-path="url(#p26b166adeb)" style="fill: #ffffff; stroke: #ea580c; stroke-width: 1.35; stroke-linejoin: miter"/>
   </g>
   <g id="patch_79">
    <path d="M 1125 415.8864 
C 1127.887107 415.8864 1130.656354 414.73934 1132.697847 412.697847 
C 1134.73934 410.656354 1135.8864 407.887107 1135.8864 405 
C 1135.8864 402.112893 1134.73934 399.343646 1132.697847 397.302153 
C 1130.656354 395.26066 1127.887107 394.1136 1125 394.1136 
C 1122.112893 394.1136 1119.343646 395.26066 1117.302153 397.302153 
C 1115.26066 399.343646 1114.1136 402.112893 1114.1136 405 
C 1114.1136 407.887107 1115.26066 410.656354 1117.302153 412.697847 
C 1119.343646 414.73934 1122.112893 415.8864 1125 415.8864 
z
" clip-path="url(#p26b166adeb)" style="fill: #ffffff; stroke: #ea580c; stroke-width: 1.35; stroke-linejoin: miter"/>
   </g>
   <g id="patch_80">
    <path d="M 1125 410.184 
C 1126.374813 410.184 1127.693502 409.637781 1128.665642 408.665642 
C 1129.637781 407.693502 1130.184 406.374813 1130.184 405 
C 1130.184 403.625187 1129.637781 402.306498 1128.665642 401.334358 
C 1127.693502 400.362219 1126.374813 399.816 1125 399.816 
C 1123.625187 399.816 1122.306498 400.362219 1121.334358 401.334358 
C 1120.362219 402.306498 1119.816 403.625187 1119.816 405 
C 1119.816 406.374813 1120.362219 407.693502 1121.334358 408.665642 
C 1122.306498 409.637781 1123.625187 410.184 1125 410.184 
z
" clip-path="url(#p26b166adeb)" style="fill: #ffffff; stroke: #ea580c; stroke-width: 1.35; stroke-linejoin: miter"/>
   </g>
   <g id="patch_81">
    <path d="M 1265.76 369.1296 
L 1278.937728 375.55776 
L 1276.687872 389.699712 
L 1265.76 401.2704 
L 1254.832128 389.699712 
L 1252.582272 375.55776 
z
" clip-path="url(#p26b166adeb)" style="fill: #ffffff; stroke: #059669; stroke-width: 1.7; stroke-linejoin: miter"/>
   </g>
   <g id="line2d_10">
    <path d="M 1265.76 509.5008 
L 1265.76 524.232 
" clip-path="url(#p26b166adeb)" style="fill: none; stroke: #dc2626; stroke-width: 1.6; stroke-linecap: square"/>
   </g>
   <g id="line2d_11">
    <path d="M 1265.76 524.232 
L 1254.6 535.392 
" clip-path="url(#p26b166adeb)" style="fill: none; stroke: #dc2626; stroke-width: 1.6; stroke-linecap: square"/>
   </g>
   <g id="line2d_12">
    <path d="M 1265.76 524.232 
L 1276.92 535.392 
" clip-path="url(#p26b166adeb)" style="fill: none; stroke: #dc2626; stroke-width: 1.6; stroke-linecap: square"/>
   </g>
   <g id="patch_82">
    <path d="M 136.8 833.84064 
C 141.06192 833.84064 145.149856 833.349043 148.163489 832.474117 
C 151.177121 831.599192 152.8704 830.412372 152.8704 829.17504 
C 152.8704 827.937708 151.177121 826.750888 148.163489 825.875963 
C 145.149856 825.001037 141.06192 824.50944 136.8 824.50944 
C 132.53808 824.50944 128.450144 825.001037 125.436511 825.875963 
C 122.422879 826.750888 120.7296 827.937708 120.7296 829.17504 
C 120.7296 830.412372 122.422879 831.599192 125.436511 832.474117 
C 128.450144 833.349043 132.53808 833.84064 136.8 833.84064 
z
" clip-path="url(#p26b166adeb)" style="fill: #ffffff; stroke: #2563eb; stroke-width: 1.5; stroke-linejoin: miter"/>
   </g>
   <g id="patch_83">
    <path d="M 136.8 845.784576 
C 141.06192 845.784576 145.149856 845.292979 148.163489 844.418053 
C 151.177121 843.543128 152.8704 842.356308 152.8704 841.118976 
C 152.8704 839.881644 151.177121 838.694824 148.163489 837.819899 
C 145.149856 836.944973 141.06192 836.453376 136.8 836.453376 
C 132.53808 836.453376 128.450144 836.944973 125.436511 837.819899 
C 122.422879 838.694824 120.7296 839.881644 120.7296 841.118976 
C 120.7296 842.356308 122.422879 843.543128 125.436511 844.418053 
C 128.450144 845.292979 132.53808 845.784576 136.8 845.784576 
z
" clip-path="url(#p26b166adeb)" style="fill: #ffffff; stroke: #2563eb; stroke-width: 1.5; stroke-linejoin: miter"/>
   </g>
   <g id="line2d_13">
    <path d="M 339.0912 836.64 
L 353.088 836.64 
" clip-path="url(#p26b166adeb)" style="fill: none; stroke: #7c3aed; stroke-width: 1.5; stroke-linecap: square"/>
   </g>
   <g id="line2d_14">
    <path d="M 353.088 836.64 
L 363.456 826.272 
" clip-path="url(#p26b166adeb)" style="fill: none; stroke: #7c3aed; stroke-width: 1.5; stroke-linecap: square"/>
   </g>
   <g id="line2d_15">
    <path d="M 363.456 826.272 
L 373.3056 826.272 
" clip-path="url(#p26b166adeb)" style="fill: none; stroke: #7c3aed; stroke-width: 1.5; stroke-linecap: square"/>
   </g>
   <g id="patch_84">
    <path d="M 563.1552 851.1552 
L 569.376 851.1552 
L 569.376 839.7504 
L 563.1552 839.7504 
z
" clip-path="url(#p26b166adeb)" style="fill: #dbeafe; stroke: #ea580c; stroke-width: 1.2; stroke-linejoin: miter"/>
   </g>
   <g id="patch_85">
    <path d="M 572.4864 851.1552 
L 578.7072 851.1552 
L 578.7072 831.456 
L 572.4864 831.456 
z
" clip-path="url(#p26b166adeb)" style="fill: #dbeafe; stroke: #ea580c; stroke-width: 1.2; stroke-linejoin: miter"/>
   </g>
   <g id="patch_86">
    <path d="M 581.8176 851.1552 
L 588.0384 851.1552 
L 588.0384 824.1984 
L 581.8176 824.1984 
z
" clip-path="url(#p26b166adeb)" style="fill: #dbeafe; stroke: #ea580c; stroke-width: 1.2; stroke-linejoin: miter"/>
   </g>
   <g id="patch_87">
    <path d="M 778.9248 851.1552 
L 807.9552 836.64 
L 778.9248 822.1248 
z
" clip-path="url(#p26b166adeb)" style="fill: #cffafe; stroke: #0891b2; stroke-width: 1.5; stroke-linejoin: miter"/>
   </g>
   <g id="patch_88">
    <path d="M 1012.32 853.2288 
C 1016.719401 853.2288 1020.939207 851.480899 1024.050053 848.370053 
C 1027.160899 845.259207 1028.9088 841.039401 1028.9088 836.64 
C 1028.9088 832.240599 1027.160899 828.020793 1024.050053 824.909947 
C 1020.939207 821.799101 1016.719401 820.0512 1012.32 820.0512 
C 1007.920599 820.0512 1003.700793 821.799101 1000.589947 824.909947 
C 997.479101 828.020793 995.7312 832.240599 995.7312 836.64 
C 995.7312 841.039401 997.479101 845.259207 1000.589947 848.370053 
C 1003.700793 851.480899 1007.920599 853.2288 1012.32 853.2288 
z
" clip-path="url(#p26b166adeb)" style="fill: #ffffff; stroke: #dc2626; stroke-width: 1.35; stroke-linejoin: miter"/>
   </g>
   <g id="patch_89">
    <path d="M 1012.32 847.5264 
C 1015.207107 847.5264 1017.976354 846.37934 1020.017847 844.337847 
C 1022.05934 842.296354 1023.2064 839.527107 1023.2064 836.64 
C 1023.2064 833.752893 1022.05934 830.983646 1020.017847 828.942153 
C 1017.976354 826.90066 1015.207107 825.7536 1012.32 825.7536 
C 1009.432893 825.7536 1006.663646 826.90066 1004.622153 828.942153 
C 1002.58066 830.983646 1001.4336 833.752893 1001.4336 836.64 
C 1001.4336 839.527107 1002.58066 842.296354 1004.622153 844.337847 
C 1006.663646 846.37934 1009.432893 847.5264 1012.32 847.5264 
z
" clip-path="url(#p26b166adeb)" style="fill: #ffffff; stroke: #dc2626; stroke-width: 1.35; stroke-linejoin: miter"/>
   </g>
   <g id="patch_90">
    <path d="M 1012.32 841.824 
C 1013.694813 841.824 1015.013502 841.277781 1015.985642 840.305642 
C 1016.957781 839.333502 1017.504 838.014813 1017.504 836.64 
C 1017.504 835.265187 1016.957781 833.946498 1015.985642 832.974358 
C 1015.013502 832.002219 1013.694813 831.456 1012.32 831.456 
C 1010.945187 831.456 1009.626498 832.002219 1008.654358 832.974358 
C 1007.682219 833.946498 1007.136 835.265187 1007.136 836.64 
C 1007.136 838.014813 1007.682219 839.333502 1008.654358 840.305642 
C 1009.626498 841.277781 1010.945187 841.824 1012.32 841.824 
z
" clip-path="url(#p26b166adeb)" style="fill: #ffffff; stroke: #dc2626; stroke-width: 1.35; stroke-linejoin: miter"/>
   </g>
   <g id="patch_91">
    <path d="M 1220.3136 837.7344 
L 1242.0864 837.7344 
L 1242.0864 821.1456 
L 1220.3136 821.1456 
z
" clip-path="url(#p26b166adeb)" style="fill: #ffffff; stroke: #059669; stroke-width: 1.5; stroke-linejoin: miter"/>
   </g>
   <g id="patch_92">
    <path d="M 1445.4144 825.7536 
L 1454.7456 825.7536 
L 1451.94624 837.72864 
L 1454.7456 847.5264 
L 1445.4144 847.5264 
L 1448.21376 837.72864 
z
" clip-path="url(#p26b166adeb)" style="fill: #ffffff; stroke: #0f766e; stroke-width: 1.4; stroke-linejoin: miter"/>
   </g>
   <g id="line2d_16">
    <path d="M 123.76512 169.92 
L 142.63488 169.92 
" clip-path="url(#p26b166adeb)" style="fill: none; stroke: #2563eb; stroke-width: 1.3; stroke-linecap: square"/>
   </g>
   <g id="line2d_17">
    <path d="M 133.2 178.0848 
L 133.2 161.7552 
" clip-path="url(#p26b166adeb)" style="fill: none; stroke: #2563eb; stroke-width: 1.3; stroke-linecap: square"/>
   </g>
   <g id="line2d_18">
    <path d="M 334.8 181.584 
L 334.8 158.256 
" clip-path="url(#p26b166adeb)" style="fill: none; stroke: #7c3aed; stroke-width: 1.3; stroke-linecap: square"/>
   </g>
   <g id="line2d_19">
    <path d="M 323.9136 166.032 
L 332.856 168.948 
" clip-path="url(#p26b166adeb)" style="fill: none; stroke: #7c3aed; stroke-width: 1.2; stroke-linecap: square"/>
   </g>
   <g id="line2d_20">
    <path d="M 345.6864 173.808 
L 336.744 170.892 
" clip-path="url(#p26b166adeb)" style="fill: none; stroke: #7c3aed; stroke-width: 1.2; stroke-linecap: square"/>
   </g>
   <g id="line2d_21">
    <path d="M 524.6064 169.92 
L 544.5648 169.92 
" clip-path="url(#p26b166adeb)" style="fill: none; stroke: #0891b2; stroke-width: 1.2; stroke-linecap: square"/>
   </g>
   <g id="line2d_22">
    <path d="M 756.9216 180.70272 
L 766.2528 190.03392 
" clip-path="url(#p26b166adeb)" style="fill: none; stroke: #0f766e; stroke-width: 2; stroke-linecap: square"/>
   </g>
   <g id="line2d_23">
    <path d="M 84.384 362.2608 
L 94.752 372.6288 
" clip-path="url(#p26b166adeb)" style="fill: none; stroke: #2563eb; stroke-width: 2; stroke-linecap: square"/>
   </g>
   <g id="patch_93">
    <path d="M 395.28 499.4928 
C 395.898666 499.4928 396.492076 499.247001 396.929539 498.809539 
C 397.367001 498.372076 397.6128 497.778666 397.6128 497.16 
C 397.6128 496.541334 397.367001 495.947924 396.929539 495.510461 
C 396.492076 495.072999 395.898666 494.8272 395.28 494.8272 
C 394.661334 494.8272 394.067924 495.072999 393.630461 495.510461 
C 393.192999 495.947924 392.9472 496.541334 392.9472 497.16 
C 392.9472 497.778666 393.192999 498.372076 393.630461 498.809539 
C 394.067924 499.247001 394.661334 499.4928 395.28 499.4928 
z
" clip-path="url(#p26b166adeb)" style="fill: #dc2626; stroke: #dc2626; stroke-linejoin: miter"/>
   </g>
   <g id="patch_94">
    <path d="M 1125 407.3328 
C 1125.618666 407.3328 1126.212076 407.087001 1126.649539 406.649539 
C 1127.087001 406.212076 1127.3328 405.618666 1127.3328 405 
C 1127.3328 404.381334 1127.087001 403.787924 1126.649539 403.350461 
C 1126.212076 402.912999 1125.618666 402.6672 1125 402.6672 
C 1124.381334 402.6672 1123.787924 402.912999 1123.350461 403.350461 
C 1122.912999 403.787924 1122.6672 404.381334 1122.6672 405 
C 1122.6672 405.618666 1122.912999 406.212076 1123.350461 406.649539 
C 1123.787924 407.087001 1124.381334 407.3328 1125 407.3328 
z
" clip-path="url(#p26b166adeb)" style="fill: #ea580c; stroke: #ea580c; stroke-linejoin: miter"/>
   </g>
   <g id="line2d_24">
    <path d="M 1260.13536 385.2 
L 1264.474368 389.2176 
" clip-path="url(#p26b166adeb)" style="fill: none; stroke: #059669; stroke-width: 1.7; stroke-linecap: square"/>
   </g>
   <g id="line2d_25">
    <path d="M 1264.474368 389.2176 
L 1271.866752 380.860992 
" clip-path="url(#p26b166adeb)" style="fill: none; stroke: #059669; stroke-width: 1.7; stroke-linecap: square"/>
   </g>
   <g id="patch_95">
    <path d="M 1265.76 512.1792 
C 1266.47032 512.1792 1267.151643 511.896987 1267.653915 511.394715 
C 1268.156187 510.892443 1268.4384 510.21112 1268.4384 509.5008 
C 1268.4384 508.79048 1268.156187 508.109157 1267.653915 507.606885 
C 1267.151643 507.104613 1266.47032 506.8224 1265.76 506.8224 
C 1265.04968 506.8224 1264.368357 507.104613 1263.866085 507.606885 
C 1263.363813 508.109157 1263.0816 508.79048 1263.0816 509.5008 
C 1263.0816 510.21112 1263.363813 510.892443 1263.866085 511.394715 
C 1264.368357 511.896987 1265.04968 512.1792 1265.76 512.1792 
z
" clip-path="url(#p26b166adeb)" style="fill: #ffffff; stroke: #dc2626; stroke-width: 1.4; stroke-linejoin: miter"/>
   </g>
   <g id="patch_96">
    <path d="M 1254.6 538.0704 
C 1255.31032 538.0704 1255.991643 537.788187 1256.493915 537.285915 
C 1256.996187 536.783643 1257.2784 536.10232 1257.2784 535.392 
C 1257.2784 534.68168 1256.996187 534.000357 1256.493915 533.498085 
C 1255.991643 532.995813 1255.31032 532.7136 1254.6 532.7136 
C 1253.88968 532.7136 1253.208357 532.995813 1252.706085 533.498085 
C 1252.203813 534.000357 1251.9216 534.68168 1251.9216 535.392 
C 1251.9216 536.10232 1252.203813 536.783643 1252.706085 537.285915 
C 1253.208357 537.788187 1253.88968 538.0704 1254.6 538.0704 
z
" clip-path="url(#p26b166adeb)" style="fill: #ffffff; stroke: #dc2626; stroke-width: 1.4; stroke-linejoin: miter"/>
   </g>
   <g id="patch_97">
    <path d="M 1276.92 538.0704 
C 1277.63032 538.0704 1278.311643 537.788187 1278.813915 537.285915 
C 1279.316187 536.783643 1279.5984 536.10232 1279.5984 535.392 
C 1279.5984 534.68168 1279.316187 534.000357 1278.813915 533.498085 
C 1278.311643 532.995813 1277.63032 532.7136 1276.92 532.7136 
C 1276.20968 532.7136 1275.528357 532.995813 1275.026085 533.498085 
C 1274.523813 534.000357 1274.2416 534.68168 1274.2416 535.392 
C 1274.2416 536.10232 1274.523813 536.783643 1275.026085 537.285915 
C 1275.528357 537.788187 1276.20968 538.0704 1276.92 538.0704 
z
" clip-path="url(#p26b166adeb)" style="fill: #ffffff; stroke: #dc2626; stroke-width: 1.4; stroke-linejoin: miter"/>
   </g>
   <g id="patch_98">
    <path d="M 339.0912 839.232 
C 339.778606 839.232 340.437951 838.958891 340.924021 838.472821 
C 341.410091 837.986751 341.6832 837.327406 341.6832 836.64 
C 341.6832 835.952594 341.410091 835.293249 340.924021 834.807179 
C 340.437951 834.321109 339.778606 834.048 339.0912 834.048 
C 338.403794 834.048 337.744449 834.321109 337.258379 834.807179 
C 336.772309 835.293249 336.4992 835.952594 336.4992 836.64 
C 336.4992 837.327406 336.772309 837.986751 337.258379 838.472821 
C 337.744449 838.958891 338.403794 839.232 339.0912 839.232 
z
" clip-path="url(#p26b166adeb)" style="fill: #ffffff; stroke: #7c3aed; stroke-width: 1.3; stroke-linejoin: miter"/>
   </g>
   <g id="patch_99">
    <path d="M 373.3056 828.864 
C 373.993006 828.864 374.652351 828.590891 375.138421 828.104821 
C 375.624491 827.618751 375.8976 826.959406 375.8976 826.272 
C 375.8976 825.584594 375.624491 824.925249 375.138421 824.439179 
C 374.652351 823.953109 373.993006 823.68 373.3056 823.68 
C 372.618194 823.68 371.958849 823.953109 371.472779 824.439179 
C 370.986709 824.925249 370.7136 825.584594 370.7136 826.272 
C 370.7136 826.959406 370.986709 827.618751 371.472779 828.104821 
C 371.958849 828.590891 372.618194 828.864 373.3056 828.864 
z
" clip-path="url(#p26b166adeb)" style="fill: #ffffff; stroke: #7c3aed; stroke-width: 1.3; stroke-linejoin: miter"/>
   </g>
   <g id="line2d_26">
    <path d="M 784.00512 836.64 
L 799.97184 836.64 
" clip-path="url(#p26b166adeb)" style="fill: none; stroke: #0891b2; stroke-width: 1.2; stroke-linecap: square"/>
   </g>
   <g id="patch_100">
    <path d="M 1012.32 838.9728 
C 1012.938666 838.9728 1013.532076 838.727001 1013.969539 838.289539 
C 1014.407001 837.852076 1014.6528 837.258666 1014.6528 836.64 
C 1014.6528 836.021334 1014.407001 835.427924 1013.969539 834.990461 
C 1013.532076 834.552999 1012.938666 834.3072 1012.32 834.3072 
C 1011.701334 834.3072 1011.107924 834.552999 1010.670461 834.990461 
C 1010.232999 835.427924 1009.9872 836.021334 1009.9872 836.64 
C 1009.9872 837.258666 1010.232999 837.852076 1010.670461 838.289539 
C 1011.107924 838.727001 1011.701334 838.9728 1012.32 838.9728 
z
" clip-path="url(#p26b166adeb)" style="fill: #dc2626; stroke: #dc2626; stroke-linejoin: miter"/>
   </g>
   <g id="patch_101">
    <path d="M 1238.27616 828.61056 
C 1238.27616 825.532005 1237.530129 822.57639 1236.203601 820.399523 
C 1234.877072 818.222656 1233.075995 816.9984 1231.2 816.9984 
C 1229.324005 816.9984 1227.522928 818.222656 1226.196399 820.399523 
C 1224.869871 822.57639 1224.12384 825.532005 1224.12384 828.61056 
" clip-path="url(#p26b166adeb)" style="fill: none; stroke: #059669; stroke-width: 1.5; stroke-linejoin: miter"/>
   </g>
   <g id="text_1">
    <text style="font-weight: 700; font-size: 12px; font-family: 'DejaVu Sans'; text-anchor: middle; fill: #ffffff" x="61.92" y="803.23125" transform="rotate(-0 61.92 803.23125)">01</text>
   </g>
   <g id="text_2">
    <text style="font-weight: 700; font-size: 12px; font-family: 'DejaVu Sans'; text-anchor: middle; fill: #2563eb" x="136.8" y="949.03125" transform="rotate(-0 136.8 949.03125)">TRAIN</text>
   </g>
   <g id="text_3">
    <text style="font-weight: 700; font-size: 12px; font-family: 'DejaVu Sans'; text-anchor: middle; fill: #ffffff" x="280.8" y="803.23125" transform="rotate(-0 280.8 803.23125)">02</text>
   </g>
   <g id="text_4">
    <text style="font-weight: 700; font-size: 12px; font-family: 'DejaVu Sans'; text-anchor: middle; fill: #7c3aed" x="355.68" y="949.03125" transform="rotate(-0 355.68 949.03125)">LOFO</text>
   </g>
   <g id="text_5">
    <text style="font-weight: 700; font-size: 12px; font-family: 'DejaVu Sans'; text-anchor: middle; fill: #ffffff" x="499.68" y="803.23125" transform="rotate(-0 499.68 803.23125)">03</text>
   </g>
   <g id="text_6">
    <text style="font-weight: 700; font-size: 12px; font-family: 'DejaVu Sans'; text-anchor: middle; fill: #ea580c" x="574.56" y="949.03125" transform="rotate(-0 574.56 949.03125)">MINE</text>
   </g>
   <g id="text_7">
    <text style="font-weight: 700; font-size: 12px; font-family: 'DejaVu Sans'; text-anchor: middle; fill: #ffffff" x="718.56" y="803.23125" transform="rotate(-0 718.56 803.23125)">04</text>
   </g>
   <g id="text_8">
    <text style="font-weight: 700; font-size: 12px; font-family: 'DejaVu Sans'; text-anchor: middle; fill: #0891b2" x="793.44" y="949.03125" transform="rotate(-0 793.44 949.03125)">O OF</text>
   </g>
   <g id="text_9">
    <text style="font-weight: 700; font-size: 12px; font-family: 'DejaVu Sans'; text-anchor: middle; fill: #ffffff" x="937.44" y="803.23125" transform="rotate(-0 937.44 803.23125)">05</text>
   </g>
   <g id="text_10">
    <text style="font-weight: 700; font-size: 12px; font-family: 'DejaVu Sans'; text-anchor: middle; fill: #dc2626" x="1012.32" y="949.03125" transform="rotate(-0 1012.32 949.03125)">CALIBRATE</text>
   </g>
   <g id="text_11">
    <text style="font-weight: 700; font-size: 12px; font-family: 'DejaVu Sans'; text-anchor: middle; fill: #ffffff" x="1147.68" y="796.03125" transform="rotate(-0 1147.68 796.03125)">06</text>
   </g>
   <g id="text_12">
    <text style="font-weight: 700; font-size: 12px; font-family: 'DejaVu Sans'; text-anchor: middle; fill: #059669" x="1231.2" y="956.23125" transform="rotate(-0 1231.2 956.23125)">FREEZE</text>
   </g>
   <g id="text_13">
    <text style="font-weight: 700; font-size: 12px; font-family: 'DejaVu Sans'; text-anchor: middle; fill: #ffffff" x="1375.2" y="803.23125" transform="rotate(-0 1375.2 803.23125)">07</text>
   </g>
   <g id="text_14">
    <text style="font-weight: 700; font-size: 12px; font-family: 'DejaVu Sans'; text-anchor: middle; fill: #0f766e" x="1450.08" y="949.03125" transform="rotate(-0 1450.08 949.03125)">VALIDATE</text>
   </g>
   <g id="text_15">
    <text style="font-weight: 700; font-size: 12px; font-family: 'DejaVu Sans'; text-anchor: middle; fill: #ea580c" x="1551.6" y="643.39125" transform="rotate(-0 1551.6 643.39125)">Frozen thresholds → decision</text>
   </g>
   <g id="text_16">
    <text style="font-size: 12px; font-family: 'DejaVu Sans'; text-anchor: start; fill: #64748b" x="82.8" y="1031.47125" transform="rotate(-0 82.8 1031.47125)">Known</text>
   </g>
   <g id="text_17">
    <text style="font-size: 12px; font-family: 'DejaVu Sans'; text-anchor: start; fill: #64748b" x="345.6" y="1031.47125" transform="rotate(-0 345.6 1031.47125)">Unknown</text>
   </g>
   <g id="text_18">
    <text style="font-size: 12px; font-family: 'DejaVu Sans'; text-anchor: start; fill: #64748b" x="608.4" y="1031.47125" transform="rotate(-0 608.4 1031.47125)">Retrieved evidence</text>
   </g>
   <g id="text_19">
    <text style="font-size: 12px; font-family: 'DejaVu Sans'; text-anchor: start; fill: #64748b" x="871.2" y="1031.47125" transform="rotate(-0 871.2 1031.47125)">Calibration</text>
   </g>
   <g id="text_20">
    <text style="font-size: 12px; font-family: 'DejaVu Sans'; text-anchor: start; fill: #64748b" x="1134" y="1031.47125" transform="rotate(-0 1134 1031.47125)">Decision / threshold</text>
   </g>
   <g id="text_21">
    <text style="font-weight: 700; font-size: 15px; font-family: 'DejaVu Sans'; text-anchor: start; fill: #2563eb" x="59.76" y="63.279863" transform="rotate(-0 59.76 63.279863)">A  INFERENCE PIPELINE</text>
   </g>
   <g id="text_22">
    <text style="font-size: 12px; font-family: 'DejaVu Sans'; text-anchor: start; fill: #64748b" x="543.6" y="63.79125" transform="rotate(-0 543.6 63.79125)">ModernBERT encoding, retrieval evidence, fusion, and open-set decision.</text>
   </g>
   <g id="text_23">
    <text style="font-weight: 700; font-size: 13.2px; font-family: 'DejaVu Sans'; text-anchor: middle; fill: #172033" x="133.2" y="203.802375" transform="rotate(-0 133.2 203.802375)">Network Input</text>
   </g>
   <g id="text_24">
    <text style="font-size: 12px; font-family: 'DejaVu Sans'; fill: #64748b" transform="translate(93.583125 222.636422)">Flow / packet</text>
    <text style="font-size: 12px; font-family: 'DejaVu Sans'; fill: #64748b" transform="translate(108.415313 234.706078)">features</text>
   </g>
   <g id="text_25">
    <text style="font-weight: 700; font-size: 13.2px; font-family: 'DejaVu Sans'; text-anchor: middle; fill: #172033" x="334.8" y="203.802375" transform="rotate(-0 334.8 203.802375)">ModernBERT Encoder</text>
   </g>
   <g id="text_26">
    <text style="font-size: 12px; font-family: 'DejaVu Sans'; fill: #64748b" transform="translate(281.409375 222.636422)">Contextual attack</text>
    <text style="font-size: 12px; font-family: 'DejaVu Sans'; fill: #64748b" transform="translate(290.802188 234.706078)">representation</text>
   </g>
   <g id="text_27">
    <text style="font-weight: 700; font-size: 13.2px; font-family: 'DejaVu Sans'; text-anchor: middle; fill: #172033" x="536.4" y="203.69925" transform="rotate(-0 536.4 203.69925)">Query Vector</text>
   </g>
   <g id="text_28">
    <text style="font-size: 12px; font-family: 'DejaVu Sans'; fill: #64748b" transform="translate(480.19125 222.636422)">Compact semantic</text>
    <text style="font-size: 12px; font-family: 'DejaVu Sans'; fill: #64748b" transform="translate(502.46625 234.706078)">embedding</text>
   </g>
   <g id="text_29">
    <text style="font-weight: 700; font-size: 13.2px; font-family: 'DejaVu Sans'; text-anchor: middle; fill: #172033" x="738" y="203.802375" transform="rotate(-0 738 203.802375)">RAG Retrieval</text>
   </g>
   <g id="text_30">
    <text style="font-size: 12px; font-family: 'DejaVu Sans'; fill: #64748b" transform="translate(685.53 222.636422)">Nearest evidence</text>
    <text style="font-size: 12px; font-family: 'DejaVu Sans'; fill: #64748b" transform="translate(715.71 234.706078)">records</text>
   </g>
   <g id="text_31">
    <text style="font-weight: 700; font-size: 12.8px; font-family: 'DejaVu Sans'; text-anchor: start; fill: #0f766e" x="56.16" y="293.332" transform="rotate(-0 56.16 293.332)">RETRIEVED EVIDENCE</text>
   </g>
   <g id="text_32">
    <text style="font-size: 12px; font-family: 'DejaVu Sans'; text-anchor: start; fill: #64748b" x="254.16" y="293.11125" transform="rotate(-0 254.16 293.11125)">Independent evidence channels</text>
   </g>
   <g id="text_33">
    <text style="font-weight: 700; font-size: 12.8px; font-family: 'DejaVu Sans'; text-anchor: start; fill: #172033" x="103.68" y="353.042" transform="rotate(-0 103.68 353.042)">A  Similarity Evidence</text>
   </g>
   <g id="text_34">
    <!-- $s_{sem}(q,e)$ -->
    <g style="fill: #2563eb" transform="translate(77.04 387.475)">
     <text>
      <tspan x="0" y="-0.890625" style="font-style: oblique; font-size: 12.2px; font-family: 'DejaVu Sans'; fill: #2563eb">s</tspan>
      <tspan x="29.585767" y="-0.890625" style="font-style: oblique; font-size: 12.2px; font-family: 'DejaVu Sans'; fill: #2563eb">q</tspan>
      <tspan x="43.642163" y="-0.890625" style="font-style: oblique; font-size: 12.2px; font-family: 'DejaVu Sans'; fill: #2563eb">e</tspan>
      <tspan x="6.382202" y="1.078125" style="font-style: oblique; font-size: 8.54px; font-family: 'DejaVu Sans'; fill: #2563eb">s</tspan>
      <tspan x="10.849744" y="1.078125" style="font-style: oblique; font-size: 8.54px; font-family: 'DejaVu Sans'; fill: #2563eb">e</tspan>
      <tspan x="16.125378" y="1.078125" style="font-style: oblique; font-size: 8.54px; font-family: 'DejaVu Sans'; fill: #2563eb">m</tspan>
      <tspan x="24.806592" y="-0.890625" style="font-size: 12.2px; font-family: 'DejaVu Sans'; fill: #2563eb">(</tspan>
      <tspan x="37.361646" y="-0.890625" style="font-size: 12.2px; font-family: 'DejaVu Sans'; fill: #2563eb">,</tspan>
      <tspan x="51.178784" y="-0.890625" style="font-size: 12.2px; font-family: 'DejaVu Sans'; fill: #2563eb">)</tspan>
     </text>
    </g>
   </g>
   <g id="text_35">
    <text style="font-size: 12px; font-family: 'DejaVu Sans'; fill: #64748b" transform="translate(77.04 421.087603)">Semantic similarity to</text>
    <text style="font-size: 12px; font-family: 'DejaVu Sans'; fill: #64748b" transform="translate(77.04 432.974897)">retrieved attack examples.</text>
   </g>
   <g id="text_36">
    <text style="font-weight: 700; font-size: 12.8px; font-family: 'DejaVu Sans'; text-anchor: start; fill: #172033" x="419.76" y="353.092" transform="rotate(-0 419.76 353.092)">B  Behavioral Evidence</text>
   </g>
   <g id="text_37">
    <!-- $s_{beh}(q,e)$ -->
    <g style="fill: #7c3aed" transform="translate(393.12 387.475)">
     <text>
      <tspan x="0" y="-0.890625" style="font-style: oblique; font-size: 12.2px; font-family: 'DejaVu Sans'; fill: #7c3aed">s</tspan>
      <tspan x="27.642993" y="-0.890625" style="font-style: oblique; font-size: 12.2px; font-family: 'DejaVu Sans'; fill: #7c3aed">q</tspan>
      <tspan x="41.69939" y="-0.890625" style="font-style: oblique; font-size: 12.2px; font-family: 'DejaVu Sans'; fill: #7c3aed">e</tspan>
      <tspan x="6.382202" y="1.078125" style="font-style: oblique; font-size: 8.54px; font-family: 'DejaVu Sans'; fill: #7c3aed">b</tspan>
      <tspan x="11.825317" y="1.078125" style="font-style: oblique; font-size: 8.54px; font-family: 'DejaVu Sans'; fill: #7c3aed">e</tspan>
      <tspan x="17.100952" y="1.078125" style="font-style: oblique; font-size: 8.54px; font-family: 'DejaVu Sans'; fill: #7c3aed">h</tspan>
      <tspan x="22.863818" y="-0.890625" style="font-size: 12.2px; font-family: 'DejaVu Sans'; fill: #7c3aed">(</tspan>
      <tspan x="35.418872" y="-0.890625" style="font-size: 12.2px; font-family: 'DejaVu Sans'; fill: #7c3aed">,</tspan>
      <tspan x="49.236011" y="-0.890625" style="font-size: 12.2px; font-family: 'DejaVu Sans'; fill: #7c3aed">)</tspan>
     </text>
    </g>
   </g>
   <g id="text_38">
    <text style="font-size: 12px; font-family: 'DejaVu Sans'; fill: #64748b" transform="translate(393.12 421.087603)">Agreement with observed</text>
    <text style="font-size: 12px; font-family: 'DejaVu Sans'; fill: #64748b" transform="translate(393.12 432.974897)">network behavior patterns.</text>
   </g>
   <g id="text_39">
    <text style="font-weight: 700; font-size: 12.8px; font-family: 'DejaVu Sans'; text-anchor: start; fill: #172033" x="103.68" y="494.212" transform="rotate(-0 103.68 494.212)">C  Context Evidence</text>
   </g>
   <g id="text_40">
    <!-- $s_{ctx}(q,e)$ -->
    <g style="fill: #0891b2" transform="translate(77.04 528.595)">
     <text>
      <tspan x="0" y="-0.890625" style="font-style: oblique; font-size: 12.2px; font-family: 'DejaVu Sans'; fill: #0891b2">s</tspan>
      <tspan x="24.640906" y="-0.890625" style="font-style: oblique; font-size: 12.2px; font-family: 'DejaVu Sans'; fill: #0891b2">q</tspan>
      <tspan x="38.697302" y="-0.890625" style="font-style: oblique; font-size: 12.2px; font-family: 'DejaVu Sans'; fill: #0891b2">e</tspan>
      <tspan x="6.382202" y="1.078125" style="font-style: oblique; font-size: 8.54px; font-family: 'DejaVu Sans'; fill: #0891b2">c</tspan>
      <tspan x="11.096777" y="1.078125" style="font-style: oblique; font-size: 8.54px; font-family: 'DejaVu Sans'; fill: #0891b2">t</tspan>
      <tspan x="14.458948" y="1.078125" style="font-style: oblique; font-size: 8.54px; font-family: 'DejaVu Sans'; fill: #0891b2">x</tspan>
      <tspan x="19.861731" y="-0.890625" style="font-size: 12.2px; font-family: 'DejaVu Sans'; fill: #0891b2">(</tspan>
      <tspan x="32.416785" y="-0.890625" style="font-size: 12.2px; font-family: 'DejaVu Sans'; fill: #0891b2">,</tspan>
      <tspan x="46.233923" y="-0.890625" style="font-size: 12.2px; font-family: 'DejaVu Sans'; fill: #0891b2">)</tspan>
     </text>
    </g>
   </g>
   <g id="text_41">
    <text style="font-size: 12px; font-family: 'DejaVu Sans'; fill: #64748b" transform="translate(77.04 562.207603)">Contextual consistency with</text>
    <text style="font-size: 12px; font-family: 'DejaVu Sans'; fill: #64748b" transform="translate(77.04 574.094897)">retrieved attack families.</text>
   </g>
   <g id="text_42">
    <text style="font-weight: 700; font-size: 12.8px; font-family: 'DejaVu Sans'; text-anchor: start; fill: #172033" x="419.76" y="494.162" transform="rotate(-0 419.76 494.162)">D  Novelty Evidence</text>
   </g>
   <g id="text_43">
    <!-- $r(q)=LOF(q)/median(LOF(N))$ -->
    <g style="fill: #dc2626" transform="translate(393.12 528.595)">
     <text>
      <tspan x="0" y="-0.875" style="font-style: oblique; font-size: 12.2px; font-family: 'DejaVu Sans'; fill: #dc2626">r</tspan>
      <tspan x="9.815552" y="-0.875" style="font-style: oblique; font-size: 12.2px; font-family: 'DejaVu Sans'; fill: #dc2626">q</tspan>
      <tspan x="37.407959" y="-0.875" style="font-style: oblique; font-size: 12.2px; font-family: 'DejaVu Sans'; fill: #dc2626">L</tspan>
      <tspan x="44.232788" y="-0.875" style="font-style: oblique; font-size: 12.2px; font-family: 'DejaVu Sans'; fill: #dc2626">O</tspan>
      <tspan x="53.874878" y="-0.875" style="font-style: oblique; font-size: 12.2px; font-family: 'DejaVu Sans'; fill: #dc2626">F</tspan>
      <tspan x="65.700195" y="-0.875" style="font-style: oblique; font-size: 12.2px; font-family: 'DejaVu Sans'; fill: #dc2626">q</tspan>
      <tspan x="82.382446" y="-0.875" style="font-style: oblique; font-size: 12.2px; font-family: 'DejaVu Sans'; fill: #dc2626">m</tspan>
      <tspan x="94.31543" y="-0.875" style="font-style: oblique; font-size: 12.2px; font-family: 'DejaVu Sans'; fill: #dc2626">e</tspan>
      <tspan x="101.852051" y="-0.875" style="font-style: oblique; font-size: 12.2px; font-family: 'DejaVu Sans'; fill: #dc2626">d</tspan>
      <tspan x="109.62793" y="-0.875" style="font-style: oblique; font-size: 12.2px; font-family: 'DejaVu Sans'; fill: #dc2626">i</tspan>
      <tspan x="113.031372" y="-0.875" style="font-style: oblique; font-size: 12.2px; font-family: 'DejaVu Sans'; fill: #dc2626">a</tspan>
      <tspan x="120.538086" y="-0.875" style="font-style: oblique; font-size: 12.2px; font-family: 'DejaVu Sans'; fill: #dc2626">n</tspan>
      <tspan x="133.081177" y="-0.875" style="font-style: oblique; font-size: 12.2px; font-family: 'DejaVu Sans'; fill: #dc2626">L</tspan>
      <tspan x="139.906006" y="-0.875" style="font-style: oblique; font-size: 12.2px; font-family: 'DejaVu Sans'; fill: #dc2626">O</tspan>
      <tspan x="149.548096" y="-0.875" style="font-style: oblique; font-size: 12.2px; font-family: 'DejaVu Sans'; fill: #dc2626">F</tspan>
      <tspan x="161.373413" y="-0.875" style="font-style: oblique; font-size: 12.2px; font-family: 'DejaVu Sans'; fill: #dc2626">N</tspan>
      <tspan x="5.036377" y="-0.875" style="font-size: 12.2px; font-family: 'DejaVu Sans'; fill: #dc2626">(</tspan>
      <tspan x="17.591431" y="-0.875" style="font-size: 12.2px; font-family: 'DejaVu Sans'; fill: #dc2626">)</tspan>
      <tspan x="24.757202" y="-0.875" style="font-size: 12.2px; font-family: 'DejaVu Sans'; fill: #dc2626">=</tspan>
      <tspan x="60.921021" y="-0.875" style="font-size: 12.2px; font-family: 'DejaVu Sans'; fill: #dc2626">(</tspan>
      <tspan x="73.476074" y="-0.875" style="font-size: 12.2px; font-family: 'DejaVu Sans'; fill: #dc2626">)</tspan>
      <tspan x="78.255249" y="-0.875" style="font-size: 12.2px; font-family: 'DejaVu Sans'; fill: #dc2626">/</tspan>
      <tspan x="128.302002" y="-0.875" style="font-size: 12.2px; font-family: 'DejaVu Sans'; fill: #dc2626">(</tspan>
      <tspan x="156.594238" y="-0.875" style="font-size: 12.2px; font-family: 'DejaVu Sans'; fill: #dc2626">(</tspan>
      <tspan x="170.536987" y="-0.875" style="font-size: 12.2px; font-family: 'DejaVu Sans'; fill: #dc2626">)</tspan>
      <tspan x="175.316162" y="-0.875" style="font-size: 12.2px; font-family: 'DejaVu Sans'; fill: #dc2626">)</tspan>
     </text>
    </g>
   </g>
   <g id="text_44">
    <text style="font-size: 12px; font-family: 'DejaVu Sans'; fill: #64748b" transform="translate(393.12 562.207603)">Local-density deviation used</text>
    <text style="font-size: 12px; font-family: 'DejaVu Sans'; fill: #64748b" transform="translate(393.12 574.094897)">for open-set novelty.</text>
   </g>
   <g id="text_45">
    <text style="font-weight: 700; font-size: 15px; font-family: 'DejaVu Sans'; text-anchor: middle; fill: #172033" x="919.8" y="430.379063" transform="rotate(-0 919.8 430.379063)">FUSE</text>
   </g>
   <g id="text_46">
    <text style="font-size: 12px; font-family: 'DejaVu Sans'; fill: #64748b" transform="translate(862.60125 463.116422)">Evidence-weighted</text>
    <text style="font-size: 12px; font-family: 'DejaVu Sans'; fill: #64748b" transform="translate(875.802188 475.186078)">representation</text>
   </g>
   <g id="text_47">
    <!-- $z(q)=\sum_i w_i e_i$ -->
    <g style="fill: #7c3aed" transform="translate(882.55 513.485)">
     <text>
      <tspan x="0" y="-0.78125" style="font-style: oblique; font-size: 12.5px; font-family: 'DejaVu Sans'; fill: #7c3aed">z</tspan>
      <tspan x="11.437988" y="-0.78125" style="font-style: oblique; font-size: 12.5px; font-family: 'DejaVu Sans'; fill: #7c3aed">q</tspan>
      <tspan x="50.937256" y="-0.78125" style="font-style: oblique; font-size: 12.5px; font-family: 'DejaVu Sans'; fill: #7c3aed">w</tspan>
      <tspan x="63.947144" y="-0.78125" style="font-style: oblique; font-size: 12.5px; font-family: 'DejaVu Sans'; fill: #7c3aed">e</tspan>
      <tspan x="6.561279" y="-0.78125" style="font-size: 12.5px; font-family: 'DejaVu Sans'; fill: #7c3aed">(</tspan>
      <tspan x="19.372559" y="-0.78125" style="font-size: 12.5px; font-family: 'DejaVu Sans'; fill: #7c3aed">)</tspan>
      <tspan x="26.68457" y="-0.78125" style="font-size: 12.5px; font-family: 'DejaVu Sans'; fill: #7c3aed">=</tspan>
      <tspan x="39.593506" y="-0.78125" style="font-size: 12.5px; font-family: 'DejaVu Sans Display'; fill: #7c3aed">∑</tspan>
      <tspan x="44.593506" y="12.00625" style="font-style: oblique; font-size: 8.75px; font-family: 'DejaVu Sans'; fill: #7c3aed">i</tspan>
      <tspan x="61.160645" y="1.351563" style="font-style: oblique; font-size: 8.75px; font-family: 'DejaVu Sans'; fill: #7c3aed">i</tspan>
      <tspan x="71.637573" y="1.351563" style="font-style: oblique; font-size: 8.75px; font-family: 'DejaVu Sans'; fill: #7c3aed">i</tspan>
     </text>
    </g>
   </g>
   <g id="text_48">
    <text style="font-weight: 700; font-size: 13.8px; font-family: 'DejaVu Sans'; text-anchor: middle; fill: #172033" x="1125" y="449.127938" transform="rotate(-0 1125 449.127938)">OPEN-SET</text>
   </g>
   <g id="text_49">
    <text style="font-weight: 700; font-size: 13.8px; font-family: 'DejaVu Sans'; text-anchor: middle; fill: #172033" x="1125" y="472.887938" transform="rotate(-0 1125 472.887938)">DECISION</text>
   </g>
   <g id="text_50">
    <!-- $\tau_{known},\tau_{zero}$ -->
    <g style="fill: #ea580c" transform="translate(1091.52 496.87125)">
     <text>
      <tspan x="0" y="-0.4375" style="font-style: oblique; font-size: 12px; font-family: 'DejaVu Sans'; fill: #ea580c">τ</tspan>
      <tspan x="41.226562" y="-0.4375" style="font-style: oblique; font-size: 12px; font-family: 'DejaVu Sans'; fill: #ea580c">τ</tspan>
      <tspan x="7.224609" y="1.53125" style="font-style: oblique; font-size: 8.4px; font-family: 'DejaVu Sans'; fill: #ea580c">k</tspan>
      <tspan x="12.089062" y="1.53125" style="font-style: oblique; font-size: 8.4px; font-family: 'DejaVu Sans'; fill: #ea580c">n</tspan>
      <tspan x="17.412891" y="1.53125" style="font-style: oblique; font-size: 8.4px; font-family: 'DejaVu Sans'; fill: #ea580c">o</tspan>
      <tspan x="22.552148" y="1.53125" style="font-style: oblique; font-size: 8.4px; font-family: 'DejaVu Sans'; fill: #ea580c">w</tspan>
      <tspan x="29.422266" y="1.53125" style="font-style: oblique; font-size: 8.4px; font-family: 'DejaVu Sans'; fill: #ea580c">n</tspan>
      <tspan x="48.451172" y="1.53125" style="font-style: oblique; font-size: 8.4px; font-family: 'DejaVu Sans'; fill: #ea580c">z</tspan>
      <tspan x="52.860352" y="1.53125" style="font-style: oblique; font-size: 8.4px; font-family: 'DejaVu Sans'; fill: #ea580c">e</tspan>
      <tspan x="58.02832" y="1.53125" style="font-style: oblique; font-size: 8.4px; font-family: 'DejaVu Sans'; fill: #ea580c">r</tspan>
      <tspan x="61.481836" y="1.53125" style="font-style: oblique; font-size: 8.4px; font-family: 'DejaVu Sans'; fill: #ea580c">o</tspan>
      <tspan x="35.074219" y="-0.4375" style="font-size: 12px; font-family: 'DejaVu Sans'; fill: #ea580c">,</tspan>
     </text>
    </g>
   </g>
   <g id="text_51">
    <text style="font-weight: 700; font-size: 13.5px; font-family: 'DejaVu Sans'; text-anchor: start; fill: #172033" x="1291.68" y="376.685156" transform="rotate(-0 1291.68 376.685156)">KNOWN</text>
   </g>
   <g id="text_52">
    <text style="font-size: 12px; font-family: 'DejaVu Sans'; text-anchor: start; fill: #64748b" x="1291.68" y="404.35125" transform="rotate(-0 1291.68 404.35125)">Attack family</text>
   </g>
   <g id="text_53">
    <text style="font-weight: 700; font-size: 13.5px; font-family: 'DejaVu Sans'; text-anchor: start; fill: #172033" x="1291.68" y="513.485156" transform="rotate(-0 1291.68 513.485156)">UNKNOWN</text>
   </g>
   <g id="text_54">
    <text style="font-size: 12px; font-family: 'DejaVu Sans'; text-anchor: start; fill: #64748b" x="1291.68" y="541.15125" transform="rotate(-0 1291.68 541.15125)">Unseen / zero-day</text>
   </g>
   <g id="text_55">
    <text style="font-weight: 700; font-size: 15px; font-family: 'DejaVu Sans'; text-anchor: start; fill: #7c3aed" x="59.76" y="704.079862" transform="rotate(-0 59.76 704.079862)">B  CALIBRATION &amp; VALIDATION</text>
   </g>
   <g id="text_56">
    <text style="font-size: 12px; font-family: 'DejaVu Sans'; text-anchor: start; fill: #64748b" x="543.6" y="704.59125" transform="rotate(-0 543.6 704.59125)">Family-disjoint calibration creates pseudo-unknowns, freezes thresholds, and validates on outer attack families.</text>
   </g>
   <g id="text_57">
    <text style="font-weight: 700; font-size: 12.5px; font-family: 'DejaVu Sans'; text-anchor: middle; fill: #172033" x="136.8" y="881.800391" transform="rotate(-0 136.8 881.800391)">Known Training Set</text>
   </g>
   <g id="text_58">
    <text style="font-size: 12px; font-family: 'DejaVu Sans'; fill: #64748b" transform="translate(66.969375 913.973194)">Construct family-aware</text>
    <text style="font-size: 12px; font-family: 'DejaVu Sans'; fill: #64748b" transform="translate(81.152813 925.769306)">training partitions.</text>
   </g>
   <g id="text_59">
    <text style="font-weight: 700; font-size: 12.5px; font-family: 'DejaVu Sans'; text-anchor: middle; fill: #172033" x="355.68" y="881.849219" transform="rotate(-0 355.68 881.849219)">LOFO Generation</text>
   </g>
   <g id="text_60">
    <text style="font-size: 12px; font-family: 'DejaVu Sans'; fill: #64748b" transform="translate(283.59375 913.973194)">Leave one attack family</text>
    <text style="font-size: 12px; font-family: 'DejaVu Sans'; fill: #64748b" transform="translate(314.965312 925.769306)">out at a time.</text>
   </g>
   <g id="text_61">
    <text style="font-weight: 700; font-size: 12.5px; font-family: 'DejaVu Sans'; text-anchor: middle; fill: #172033" x="574.56" y="881.800391" transform="rotate(-0 574.56 881.800391)">Disagreement Mining</text>
   </g>
   <g id="text_62">
    <text style="font-size: 12px; font-family: 'DejaVu Sans'; fill: #64748b" transform="translate(510.426563 913.973194)">Identify samples with</text>
    <text style="font-size: 12px; font-family: 'DejaVu Sans'; fill: #64748b" transform="translate(510.569063 925.769306)">model disagreement.</text>
   </g>
   <g id="text_63">
    <text style="font-weight: 700; font-size: 12.5px; font-family: 'DejaVu Sans'; text-anchor: middle; fill: #172033" x="793.44" y="881.849219" transform="rotate(-0 793.44 881.849219)">Cross-Fitted Scores</text>
   </g>
   <g id="text_64">
    <text style="font-size: 12px; font-family: 'DejaVu Sans'; fill: #64748b" transform="translate(711.6375 913.973194)">Generate leakage-resistant</text>
    <text style="font-size: 12px; font-family: 'DejaVu Sans'; fill: #64748b" transform="translate(739.400625 925.769306)">out-of-fold scores.</text>
   </g>
   <g id="text_65">
    <text style="font-weight: 700; font-size: 12.5px; font-family: 'DejaVu Sans'; text-anchor: middle; fill: #172033" x="1012.32" y="881.849219" transform="rotate(-0 1012.32 881.849219)">Constrained Calibration</text>
   </g>
   <g id="text_66">
    <text style="font-size: 12px; font-family: 'DejaVu Sans'; fill: #64748b" transform="translate(932.65125 913.973194)">Optimize thresholds under</text>
    <text style="font-size: 12px; font-family: 'DejaVu Sans'; fill: #64748b" transform="translate(947.307188 925.769306)">coverage constraints.</text>
   </g>
   <g id="text_67">
    <text style="font-weight: 700; font-size: 12.5px; font-family: 'DejaVu Sans'; text-anchor: middle; fill: #172033" x="1231.2" y="889.049219" transform="rotate(-0 1231.2 889.049219)">Freeze Thresholds</text>
   </g>
   <g id="text_68">
    <text style="font-size: 12px; font-family: 'DejaVu Sans'; fill: #64748b" transform="translate(1153.378125 921.173194)">Lock operating thresholds</text>
    <text style="font-size: 12px; font-family: 'DejaVu Sans'; fill: #64748b" transform="translate(1160.646563 932.969306)">before outer validation.</text>
   </g>
   <g id="text_69">
    <text style="font-weight: 700; font-size: 12.5px; font-family: 'DejaVu Sans'; text-anchor: middle; fill: #172033" x="1450.08" y="881.800391" transform="rotate(-0 1450.08 881.800391)">Outer-Family Validation</text>
   </g>
   <g id="text_70">
    <text style="font-size: 12px; font-family: 'DejaVu Sans'; fill: #64748b" transform="translate(1368.392812 913.973194)">Evaluate on attack families</text>
    <text style="font-size: 12px; font-family: 'DejaVu Sans'; fill: #64748b" transform="translate(1373.595 925.769306)">never used in calibration.</text>
   </g>
   <g id="text_71">
    <text style="font-size: 12px; font-family: 'DejaVu Sans'; text-anchor: start; fill: #94a3b8" x="51.84" y="1068.91125" transform="rotate(-0 51.84 1068.91125)">Architecture emphasizes retrieval evidence, explicit open-set separation, and family-disjoint calibration to reduce unknown-attack leakage.</text>
   </g>
  </g>
 </g>
 <defs>
  <clipPath id="p26b166adeb">
   <rect x="0" y="0" width="1728" height="1080"/>
  </clipPath>
 </defs>
</svg>
